<?xml version="1.0" encoding="UTF-8"?>
<svg id="Layer_1" data-name="Layer 1" xmlns="http://www.w3.org/2000/svg" xmlns:xlink="http://www.w3.org/1999/xlink" viewBox="0 0 60 60">
  <path d="M34.7,40.34h8.46m-26.33,0h13.16m6.58-5.64h6.58m-26.33,0h15.04m-3.76-5.64h15.04m-26.33,0h6.58m10.34-5.64h9.4m-26.33,0h12.22m1.88-11.28h12.22m-12.22,5.64h12.22M30.94,6.49h12.22m-26.33,0h9.4v11.28h-9.4V6.49Zm31.03,14.1v20.69m-35.73,0V3.67c0-1.56,1.26-2.82,2.82-2.82h30.09c1.56,0,2.82,1.26,2.82,2.82V15.9m-14.1,36.67c0,3.65,2.93,6.58,6.58,6.58m-14.1-6.58c0,3.65-2.93,6.58-6.58,6.58m-2.82,0h26.33M.85,45.04H59.15m-31.03,3.76h3.76M47.86,7.43h7.52c2.08,0,3.76,1.68,3.76,3.76V48.81c0,2.08-1.68,3.76-3.76,3.76H4.61c-2.08,0-3.76-1.68-3.76-3.76V11.19c0-2.08,1.68-3.76,3.76-3.76h7.52" style="fill: none; stroke: currentColor; stroke-linecap: round; stroke-linejoin: round; stroke-width: 1.5px;"/>
</svg>
