<?xml version="1.0" encoding="UTF-8"?>
<svg id="Layer_1" data-name="Layer 1" xmlns="http://www.w3.org/2000/svg" xmlns:xlink="http://www.w3.org/1999/xlink" viewBox="0 0 60 60">
  <path d="M37.54,5.48l2.83,1.89,3.77-2.83M20.57,.78h1.88M13.03,.78h3.77m1.12,9.9l1.63,.94M11.39,6.9l3.26,1.89m-3.98,9.13l.94,1.63M6.91,11.39l1.89,3.27M.78,20.58v1.89M.78,13.03v3.77M9.26,.78c0,4.69-3.8,8.49-8.48,8.49M40.37,26.22h18.85m-24.51-5.66h24.51m-25.45,9.43c0,2.6-1.69,4.71-3.77,4.71s-3.77-2.11-3.77-4.71,1.69-4.71,3.77-4.71,3.77,2.11,3.77,4.71Zm-3.77,29.23v-17.92m-7.54,17.92v-17.92h15.08v17.92m17.91,0v-14.14m0-7.54c2.09,0,3.77,1.68,3.77,3.77v5.66c0,2.09-1.68,3.77-3.77,3.77s-3.77-1.68-3.77-3.77v-5.66c0-2.09,1.68-3.77,3.77-3.77ZM29.99,15.85h29.22m-12.24,16.97h12.25M13.03,59.22v-26.4L30,15.85l16.97,16.97v26.4m-42.42-.94v-14.14m0-7.54c2.09,0,3.77,1.68,3.77,3.77v5.66c0,2.09-1.68,3.77-3.77,3.77s-3.77-1.68-3.77-3.77v-5.66c0-2.09,1.68-3.77,3.77-3.77ZM.78,59.22H59.22" style="fill: none; stroke: currentColor; stroke-linecap: round; stroke-linejoin: round; stroke-width: 1.5px;"/>
</svg>
