<svg width="60" height="60" viewBox="0 0 60 60" fill="none" xmlns="http://www.w3.org/2000/svg">
    <path d="M0.709991 11.27H59.29M15.83 7.49002H17.72M10.16 7.49002H12.05M4.48999 7.49002H6.37999M7.31999 50.95H4.48999C2.39999 50.95 0.709991 49.26 0.709991 47.17V7.49002C0.709991 5.40002 2.39999 3.71002 4.48999 3.71002H55.51C57.6 3.71002 59.29 5.40002 59.29 7.49002V47.17C59.29 49.26 57.6 50.95 55.51 50.95H52.68M45.12 43.4L47.06 47.34L51.41 47.97L48.27 51.04L49.01 55.37L45.12 53.33L41.23 55.37L41.97 51.04L38.83 47.97L43.18 47.34L45.12 43.4ZM14.88 43.4L16.82 47.34L21.17 47.97L18.03 51.04L18.77 55.37L14.88 53.33L10.99 55.37L11.73 51.04L8.58999 47.97L12.94 47.34L14.88 43.4ZM30 43.4L31.94 47.34L36.29 47.97L33.15 51.04L33.89 55.37L30 53.33L26.11 55.37L26.85 51.04L23.71 47.97L28.06 47.34L30 43.4ZM35.67 29.23L26.22 34.67V23.79L35.67 29.23ZM17.72 17.88H42.29C43.86 17.88 45.12 19.14 45.12 20.71V37.72C45.12 39.29 43.86 40.55 42.29 40.55H17.72C16.15 40.55 14.89 39.29 14.89 37.72V20.72C14.89 19.15 16.15 17.89 17.72 17.89V17.88Z" stroke="currentColor" stroke-width="1.5" stroke-linecap="round" stroke-linejoin="round"/>
</svg>
