<?xml version="1.0" encoding="UTF-8"?>
<svg id="Layer_1" data-name="Layer 1" xmlns="http://www.w3.org/2000/svg" xmlns:xlink="http://www.w3.org/1999/xlink" viewBox="0 0 60 60">
  <path d="M26.23,55.42h7.53m5.65,3.77h19.77M.81,59.19H20.58m15.62-7.08c1.97,1.73,3.21,4.26,3.21,7.08m-18.83,0c0-2.84,1.26-5.39,3.25-7.12m10.87-35.26c0,2.6-2.11,4.71-4.71,4.71m8.48-4.71c0,4.68-3.79,8.48-8.48,8.48s-8.48-3.79-8.48-8.48C21.52,9.28,30,.81,30,.81c0,0,8.48,8.48,8.48,16.01Zm-10.61,38.29c-.22-1.72-.56-3.35-1.02-4.89-2.43-8.21-7.95-13.91-12.85-17.39m18.13,22.39c1.34-10.95,8.04-18.24,13.89-22.39M.81,19.64s27.97,1.33,20.64,20.64C2.14,47.61,.81,19.64,.81,19.64Zm58.38,0s-27.97,1.33-20.64,20.64c19.31,7.32,20.64-20.64,20.64-20.64Z" style="fill: none; stroke: currentColor; stroke-linecap: round; stroke-linejoin: round; stroke-width: 1.5px;"/>
</svg>
