<?xml version="1.0" encoding="UTF-8"?>
<svg id="Layer_1" data-name="Layer 1" xmlns="http://www.w3.org/2000/svg" xmlns:xlink="http://www.w3.org/1999/xlink" viewBox="0 0 60.08 60.08">
  <path d="M46.1,14.92l1.89,1.89,4.72-2.83M33.82,4.53l.94,.94,2.83-1.89M20.59,.75h1.89M13.03,.75h3.78m1.12,9.92l1.64,.94M11.39,6.89l3.27,1.89m-3.99,9.15l.94,1.64M6.89,11.39l1.89,3.27M.75,20.59v1.89M.75,13.03v3.78M9.25,.75c0,4.7-3.81,8.5-8.5,8.5M59.33,59.33h-12.28m-34.02,0H.75m54.8-.94v-11.34m0-7.56c2.09,0,3.78,1.69,3.78,3.78v5.67c0,2.09-1.69,3.78-3.78,3.78s-3.78-1.69-3.78-3.78v-5.67c0-2.09,1.69-3.78,3.78-3.78ZM4.53,58.39v-11.34m0-7.56c2.09,0,3.78,1.69,3.78,3.78v5.67c0,2.09-1.69,3.78-3.78,3.78s-3.78-1.69-3.78-3.78v-5.67c0-2.09,1.69-3.78,3.78-3.78Zm30.24-10.39c0,2.61-2.12,4.72-4.72,4.72s-4.72-2.12-4.72-4.72,2.12-4.72,4.72-4.72,4.72,2.12,4.72,4.72Zm-4.72,30.24v-17.01m-7.56,17.01v-17.01h15.12v17.01M30.04,14.92l17.95,10.39,3.78,10.39m-38.74-2.83v26.46H47.05v-26.46M30.04,14.92L12.09,25.32l-3.78,10.39" style="fill: none; stroke: currentColor; stroke-linecap: round; stroke-linejoin: round; stroke-width: 1.5px;"/>
</svg>
