<?xml version="1.0" standalone="no"?>
<!DOCTYPE svg PUBLIC "-//W3C//DTD SVG 20010904//EN"
 "http://www.w3.org/TR/2001/REC-SVG-20010904/DTD/svg10.dtd">
<svg version="1.0" xmlns="http://www.w3.org/2000/svg"
 width="731.000000pt" height="731.000000pt" viewBox="0 0 731.000000 731.000000"
 preserveAspectRatio="xMidYMid meet">
<metadata>
Created by potrace 1.14, written by Peter Selinger 2001-2017
</metadata>
<g transform="translate(0.000000,731.000000) scale(0.100000,-0.100000)"
fill="#000000" stroke="none">
<path d="M3439 6765 c-2 -1 -40 -6 -84 -9 -44 -3 -89 -8 -100 -10 -11 -2 -42
-7 -70 -10 -27 -4 -61 -9 -75 -11 -56 -12 -76 -15 -103 -20 -71 -13 -302 -77
-396 -110 -374 -130 -699 -315 -1021 -582 -65 -54 -297 -287 -362 -363 -295
-347 -517 -777 -631 -1225 -40 -157 -43 -169 -58 -275 -5 -41 -12 -86 -15
-100 -12 -73 -19 -207 -19 -390 1 -243 8 -339 41 -520 8 -47 18 -100 21 -119
3 -19 11 -52 19 -74 8 -22 14 -47 14 -57 0 -17 80 -272 99 -315 5 -11 24 -56
42 -100 69 -166 188 -385 293 -540 39 -58 129 -178 151 -201 5 -7 26 -31 45
-55 64 -82 324 -335 427 -416 408 -324 884 -548 1358 -639 11 -2 43 -8 70 -14
28 -5 73 -12 100 -16 28 -3 58 -8 68 -10 164 -31 670 -25 879 11 15 3 42 7 58
10 77 13 98 17 140 26 25 6 56 13 70 15 43 8 231 64 317 94 358 126 719 334
1013 584 90 77 343 342 416 436 326 421 538 895 618 1380 3 19 8 44 10 56 2
12 7 43 10 70 3 27 9 76 13 109 10 79 10 489 0 585 -16 152 -46 321 -82 464
-81 314 -226 648 -387 888 -21 31 -38 59 -38 62 0 3 -6 14 -14 23 -8 10 -48
63 -90 119 -153 205 -355 412 -576 587 -99 79 -316 221 -428 279 -40 21 -80
43 -90 48 -26 15 -213 100 -219 100 -3 0 -19 6 -36 14 -32 14 -68 28 -77 31
-3 0 -54 17 -115 37 -97 33 -216 64 -365 98 -25 5 -97 17 -160 25 -63 9 -128
18 -145 21 -34 6 -531 15 -536 9z"/>
</g>
</svg>
