<svg width="64" height="64" viewBox="0 0 64 64" fill="none" xmlns="http://www.w3.org/2000/svg">
    <path d="M40.22 51.39V35.26M24.1 51.39V35.26M19.06 63.48V54.41C19.06 52.73 20.41 51.39 22.08 51.39H42.24C43.92 51.39 45.26 52.74 45.26 54.41V63.48M15.03 14.1H49.3M11 63.48V47.35C11 40.65 16.39 35.26 23.09 35.26H41.23C47.93 35.26 53.32 40.65 53.32 47.35V63.48M32.16 1C38.86 1 44.25 6.39 44.25 13.09V19.14C44.25 25.84 38.86 31.23 32.16 31.23C25.46 31.23 20.07 25.84 20.07 19.14V13.09C20.07 6.39 25.46 1 32.16 1Z" stroke="currentColor" strokeWidth="1.5" stroke-linecap="round" stroke-linejoin="round"/>
</svg>
