<?xml version="1.0" encoding="utf-8"?>
<!-- Generator: Adobe Illustrator 27.3.1, SVG Export Plug-In . SVG Version: 6.00 Build 0)  -->
<svg version="1.1" xmlns="http://www.w3.org/2000/svg" xmlns:xlink="http://www.w3.org/1999/xlink" x="0px" y="0px"
	 viewBox="0 0 300 65" style="enable-background:new 0 0 300 65;" xml:space="preserve">
	<path fill="#181815" d="M66.56,65.24h3.77v-0.29c-1.07,0-1.32-0.31-1.32-1.22v-6.57c0-1.04,0.34-1.26,1.32-1.26V55.6h-3.77v0.29
	c0.87,0.05,1.16,0.28,1.16,1.12v6.61c0,1.04-0.2,1.29-1.16,1.33V65.24z M84.47,65.24l1.19-2.26h-0.28
	c-0.98,1.35-1.26,1.71-2.17,1.71h-2.28c-0.45,0-0.62-0.15-0.62-0.57v-7.15c0-0.96,0.26-1.07,1.27-1.07h0.57V55.6h-4.57v0.29h0.22
	c0.98,0,1.23,0.34,1.23,1.16v6.87c0,0.79-0.26,1.02-0.98,1.02h-0.51v0.29H84.47z M99.22,65.24l1.19-2.26h-0.28
	c-0.98,1.35-1.26,1.71-2.17,1.71h-2.28c-0.45,0-0.62-0.15-0.62-0.57v-7.15c0-0.96,0.26-1.07,1.27-1.07h0.57V55.6h-4.57v0.29h0.22
	c0.98,0,1.23,0.34,1.23,1.16v6.87c0,0.79-0.26,1.02-0.98,1.02h-0.51v0.29H99.22z M118.83,55.89V55.6h-3.64v0.29
	c1.29,0.06,1.52,0.33,1.52,1.81v3.61c0,2.64-1.78,3.36-3.54,3.36c-2.31,0-3.54-1.26-3.54-3.35v-4.31c0-0.9,0.37-1.13,1.23-1.13H111
	V55.6h-3.98v0.29c1.06,0.02,1.33,0.17,1.33,1.16v4.53c0,2.22,1.52,3.91,4.48,3.91c3.36,0,4.59-2.06,4.59-3.98v-4.19
	C117.42,56.33,117.8,55.91,118.83,55.89 M127.15,57.19c0-0.87,0.71-1.46,1.74-1.46c1.07,0,2.06,0.71,2.5,1.83h0.26l-0.26-1.97h-0.25
	c-0.09,0.12-0.15,0.15-0.28,0.15c-0.54,0-0.81-0.39-2.11-0.39c-1.58,0-2.76,0.96-2.76,2.25c0,2.71,4.98,3.4,4.98,5.63
	c0,1.23-1.1,1.83-2.14,1.83c-1.21,0-2.3-0.8-2.62-2.19h-0.29l0.33,2.36h0.26c0.06-0.09,0.17-0.17,0.31-0.17
	c0.22,0,1.3,0.42,2.16,0.42c1.81,0,3.16-1.13,3.16-2.65C132.12,59.98,127.15,59.4,127.15,57.19 M148.74,57.88h0.28l-0.25-2.51h-0.29
	c-0.03,0.19-0.26,0.23-0.48,0.23h-7.46c-0.11,0-0.22-0.02-0.31-0.05c-0.09-0.03-0.16-0.09-0.17-0.19h-0.29l-0.25,2.51h0.28
	c0.23-1.36,0.51-1.72,1.13-1.72h2.7v7.66c0,0.84-0.28,1.13-1.23,1.13h-0.57v0.29h4.88v-0.29h-0.57c-0.95,0-1.23-0.29-1.23-1.13
	v-7.66h2.7C148.23,56.15,148.51,56.51,148.74,57.88 M159.77,60.9c-0.36,0-0.59,0.02-0.96-0.03v-5.08c0.28-0.03,0.48-0.03,0.77-0.03
	c2.39,0,3.04,1.12,3.04,2.56C162.62,60.17,161.49,60.9,159.77,60.9 M168.06,65.41v-0.28c-1.19-0.08-2.14-0.65-3.05-1.57l-1.23-1.23
	c-0.73-0.73-1.19-1.16-1.77-1.61c1.27-0.37,2.06-1.35,2.06-2.51c0-1.58-1.29-2.76-4.16-2.76c-1.01,0-1.32,0.01-1.95,0.05
	c-0.63,0.03-1.58,0.09-1.95,0.09v0.29h0.34c0.9,0,1.16,0.28,1.16,1.24v6.53c0,1.04-0.33,1.29-1.24,1.29h-0.26v0.29h4.39v-0.29h-0.36
	c-0.87,0-1.24-0.23-1.24-1.16v-2.62c0.25,0.02,0.45,0.03,0.79,0.03c0.42,0,0.67-0.02,1.05-0.03c0.37,0.25,0.91,0.7,1.6,1.38
	l1.02,1.02C164.65,64.95,165.35,65.54,168.06,65.41 M179.1,60.28h-2.68l1.32-3.61L179.1,60.28z M178.96,65.24h4.26v-0.29
	c-0.78,0-1.1-0.15-1.41-0.98l-3.24-8.61h-1.35l0.14,0.34l-2.82,7.71c-0.5,1.35-0.67,1.52-1.68,1.53v0.29h3.58v-0.29h-0.25
	c-0.85,0-1.26-0.15-1.26-0.57c0-0.22,0.2-0.68,0.31-0.98l0.9-2.43h3.21l1.04,2.82c0.06,0.15,0.17,0.39,0.17,0.64
	c0,0.43-0.33,0.53-1.21,0.53h-0.4V65.24z M198.06,57.88h0.28l-0.25-2.51h-0.29c-0.03,0.19-0.26,0.23-0.48,0.23h-7.46
	c-0.11,0-0.22-0.02-0.31-0.05c-0.09-0.03-0.15-0.09-0.17-0.19h-0.29l-0.25,2.51h0.28c0.23-1.36,0.51-1.72,1.13-1.72h2.7v7.66
	c0,0.84-0.28,1.13-1.23,1.13h-0.57v0.29h4.88v-0.29h-0.57c-0.95,0-1.22-0.29-1.22-1.13v-7.66h2.7
	C197.55,56.15,197.83,56.51,198.06,57.88 M213.31,65.24l0.25-2.31h-0.28c-0.39,1.33-0.71,1.75-1.8,1.75h-2.39
	c-0.57,0-0.84-0.14-0.84-0.85v-3.3h2.62c0.64,0,0.93,0.12,1.05,1.23h0.29v-2.95h-0.29c-0.08,0.9-0.34,1.16-0.9,1.16h-2.78v-3.81
	h3.27c0.56,0,0.95,0.28,1.15,1.6h0.28l-0.12-2.16h-7.44v0.29h0.34c1.04,0,1.24,0.37,1.24,1.24v6.54c0,0.93-0.22,1.27-1.46,1.27
	h-0.43v0.29H213.31z M229.92,60.34c0,1.6-0.71,2.79-1.29,3.35c-0.96,0.96-1.83,1.26-3.91,1.26c-1.22,0-1.27-0.22-1.27-0.85v-8.28
	c0.18-0.02,0.6-0.06,1.24-0.06c2.17,0,3.27,0.54,3.98,1.26C229.59,57.92,229.92,59.19,229.92,60.34 M231.38,60.09
	c0-2.56-1.81-4.64-5.91-4.64c-0.81,0-1.75,0.01-2.6,0.05c-0.85,0.03-1.61,0.06-2.19,0.09v0.29h0.31c0.91,0,1.18,0.25,1.18,1.26v6.67
	c0,0.9-0.39,1.13-1.22,1.13h-0.26v0.29h4.96C229.56,65.24,231.38,62.43,231.38,60.09"/>
	<path fill="#181815" class="st0" d="M35.69,25.08c0.72-0.4,1.92-0.65,3.62-0.76V23.5H22.8v0.82c2.28,0.12,3.94,0.37,4.98,0.74
	c1.04,0.37,1.68,0.9,1.93,1.58c0.25,0.68,0.37,1.76,0.37,3.23v7.41c-3.03,1.44-5.91,2.15-8.66,2.15c-3.05,0-5.82-0.8-8.34-2.39
	c-2.51-1.59-4.49-3.84-5.92-6.76c-1.43-2.91-2.15-6.24-2.15-9.97c0-3.61,0.69-6.83,2.07-9.66c1.38-2.83,3.27-5.03,5.65-6.6
	c2.39-1.57,5.02-2.35,7.89-2.35c1.81,0,3.56,0.37,5.27,1.11c1.71,0.74,3.19,1.91,4.45,3.49c1.26,1.58,2.1,3.54,2.52,5.88h0.8V1.81
	h-0.8c-0.12,0.5-0.25,0.91-0.39,1.25c-0.13,0.34-0.31,0.5-0.54,0.5c-0.09,0-0.71-0.29-1.86-0.88c-3.17-1.59-6.39-2.39-9.66-2.39
	c-3.86,0-7.34,0.99-10.45,2.97c-3.11,1.98-5.5,4.57-7.19,7.77C1.08,14.23,0.24,17.55,0.24,21c0,3.13,0.75,6.23,2.24,9.29
	s3.75,5.59,6.77,7.58c3.02,1.99,6.66,2.99,10.93,2.99c2.02,0,3.94-0.2,5.76-0.6c1.82-0.4,3.33-0.82,4.53-1.28
	c1.19-0.45,2.41-0.95,3.65-1.5v-7.3c0-1.59,0.08-2.74,0.25-3.45C34.53,26.03,34.98,25.47,35.69,25.08 M67.34,20.95H55.57l5.84-17.02
	L67.34,20.95z M66.3,40.09h16.75v-0.82c-1.86-0.34-3.15-0.65-3.86-0.94c-0.72-0.29-1.31-0.81-1.77-1.54
	c-0.46-0.73-1.05-2.12-1.78-4.16L64.33,0.29h-4.25l0.61,1.51L50.21,32.31c-0.69,1.98-1.34,3.44-1.95,4.37
	c-0.61,0.93-1.27,1.54-1.96,1.83c-0.7,0.29-1.77,0.55-3.23,0.76v0.82h14.52v-0.82c-1.91-0.14-3.36-0.33-4.34-0.56
	c-0.98-0.23-1.68-0.54-2.1-0.92c-0.42-0.38-0.62-0.86-0.62-1.45c0-0.58,0.31-1.74,0.93-3.48l3.64-10.51h12.72l3.93,11.15
	c0.5,1.4,0.74,2.42,0.74,3.05c0,0.57-0.16,1.01-0.48,1.33c-0.32,0.32-0.88,0.58-1.67,0.77c-0.8,0.19-2.14,0.4-4.03,0.61V40.09z
	 M111.76,18.53c-2.25,1.42-5.18,2.14-8.79,2.14h-3.05V2.14c1.75-0.2,3.29-0.29,4.62-0.29c2.51,0,4.56,0.45,6.15,1.34
	c1.58,0.89,2.72,2.06,3.41,3.49c0.69,1.43,1.04,3,1.04,4.7C115.13,14.72,114.01,17.11,111.76,18.53 M132.51,39.98v-0.83
	c-4.73-0.89-7.63-2.25-10.74-5.99c-9.43-12.27-9.16-11.86-9.44-12.33c1.26-0.39,2.47-1.03,3.64-1.93c1.17-0.89,2.12-2,2.87-3.32
	c0.74-1.32,1.12-2.79,1.12-4.42c0-1.4-0.28-2.74-0.85-4.02c-0.57-1.28-1.46-2.43-2.67-3.43c-1.21-1-2.8-1.8-4.77-2.39
	c-1.96-0.59-4.25-0.89-6.85-0.89c-0.51,0-2.62,0.05-6.31,0.15c-3.69,0.1-6.61,0.19-8.75,0.28v0.82c2.6,0.07,4.27,0.46,5.02,1.17
	c0.74,0.71,1.12,1.73,1.12,3.08v0.72v27.13c0,1.4-0.14,2.44-0.41,3.12c-0.28,0.68-0.84,1.19-1.7,1.51c-0.86,0.33-2.2,0.57-4.02,0.73
	v0.82h17.28v-0.82c-2.25-0.18-3.88-0.42-4.89-0.74c-1.01-0.32-1.63-0.75-1.87-1.3c-0.24-0.55-0.36-1.46-0.36-2.74v-0.48V22.02h2.81
	c1.38,0,2.89-0.18,5.17-0.39c0.2,0.27,6,8.23,9.19,11.93C122.65,41.34,130.53,39.93,132.51,39.98 M175.96,20.15
	c0,1.66-0.18,3.28-0.53,4.83c-0.36,1.56-0.88,3-1.57,4.33c-0.69,1.33-1.55,2.54-2.58,3.64c-0.99,1.08-2,1.98-3.01,2.71
	c-1.02,0.73-2.16,1.33-3.44,1.82c-1.28,0.49-2.73,0.85-4.35,1.09c-1.63,0.24-3.43,0.36-5.39,0.36c-1.72,0-2.98-0.15-3.78-0.46
	c-0.8-0.31-1.31-0.76-1.51-1.35c-0.2-0.59-0.31-1.49-0.31-2.7v-0.88V2.28c1.59-0.2,3.29-0.29,5.1-0.29c5.24,0,9.46,0.89,12.65,2.66
	c3.19,1.77,5.45,4.02,6.76,6.76C175.3,14.13,175.96,17.05,175.96,20.15 M179.24,27.69c1.09-2.5,1.63-5.11,1.63-7.86
	c0-2.8-0.54-5.37-1.63-7.71s-2.65-4.38-4.7-6.11c-2.04-1.73-4.53-3.06-7.45-4.01c-2.92-0.95-6.14-1.42-9.66-1.42
	c-0.9,0-1.72,0.01-2.46,0.03c-0.74,0.02-2.12,0.05-4.16,0.09c-2.04,0.04-4.03,0.09-5.97,0.15c-1.95,0.05-3.86,0.1-5.73,0.16v0.82
	c1.56,0.05,2.76,0.18,3.6,0.39c0.84,0.2,1.45,0.52,1.83,0.94c0.38,0.42,0.63,1.04,0.74,1.85c0.12,0.8,0.17,1.96,0.17,3.46v23.28
	c0,2.37-0.09,3.99-0.28,4.85c-0.18,0.86-0.7,1.47-1.54,1.84c-0.84,0.37-2.35,0.66-4.53,0.85v0.82c1.12,0,3.83,0.04,8.15,0.13
	c4.32,0.09,6.5,0.13,6.53,0.13c5.93,0,10.46-0.57,13.59-1.73c2.74-1.01,5.13-2.46,7.17-4.37C176.59,32.39,178.15,30.19,179.24,27.69
	 M217.67,40.07l0.98-9.61h-0.82c-0.53,2.67-1.12,4.57-1.77,5.68c-0.65,1.11-1.46,1.81-2.44,2.1c-0.98,0.28-2.53,0.42-4.63,0.42
	h-5.71c-1.45,0-2.44-0.12-2.96-0.37c-0.52-0.25-0.85-0.72-0.98-1.43c-0.13-0.71-0.2-2.06-0.2-4.06V20.66h8.66
	c1.4,0,2.46,0.14,3.17,0.42c0.72,0.28,1.23,0.8,1.53,1.55c0.3,0.75,0.52,1.98,0.66,3.68h0.82V14.23h-0.82
	c-0.07,1.17-0.22,2.12-0.45,2.84c-0.23,0.73-0.55,1.23-0.96,1.53c-0.41,0.29-0.91,0.47-1.5,0.54c-0.59,0.07-1.53,0.11-2.8,0.11
	h-8.31V2.39h7.22c2.6,0,4.41,0.12,5.43,0.37c1.02,0.25,1.76,0.85,2.22,1.81c0.46,0.96,0.88,2.74,1.27,5.36h0.82l-0.5-8.97h-27.05
	v0.82c2.21,0.16,3.76,0.42,4.63,0.77c0.88,0.35,1.42,0.86,1.62,1.53c0.2,0.66,0.31,1.77,0.31,3.31V33c0,1.93-0.11,3.25-0.33,3.96
	c-0.22,0.71-0.77,1.22-1.66,1.53c-0.88,0.31-2.49,0.56-4.81,0.76v0.82H217.67z M265.72,2.82c0.8-0.37,2.08-0.72,3.81-1.04V0.96
	h-14.15v0.82c2.02,0.16,3.49,0.45,4.42,0.88c0.93,0.42,1.53,1.04,1.81,1.86c0.28,0.81,0.41,2.08,0.41,3.8v25.62L236.02,0.96h-9.34
	v0.82c2.71,0.41,4.66,1.12,5.87,2.12v27.9c0,1.98-0.12,3.41-0.37,4.27c-0.25,0.87-0.76,1.53-1.54,1.98
	c-0.78,0.45-2.1,0.85-3.95,1.18v0.82h14.2v-0.82c-2.04-0.12-3.55-0.44-4.55-0.96c-1-0.51-1.64-1.22-1.92-2.11
	c-0.28-0.89-0.42-2.19-0.42-3.89V5.15l28.14,35.68h1.33V8.63c0-1.75,0.18-3.07,0.53-3.94S264.91,3.19,265.72,2.82 M280.99,11.18
	c-0.67-0.96-1.01-2.03-1.01-3.24c0-0.9,0.24-1.83,0.73-2.78s1.28-1.76,2.36-2.43c1.09-0.67,2.47-1.01,4.16-1.01
	c1.22,0,2.4,0.24,3.54,0.73c1.14,0.49,2.14,1.11,2.99,1.88c0.85,0.77,1.58,1.64,2.18,2.6c0.6,0.96,1.05,1.96,1.35,2.99h0.74
	l-0.98-8.58h-0.8c-0.07,1.01-0.34,1.51-0.82,1.51c-0.23,0-0.52-0.1-0.88-0.32c-1.31-0.76-2.55-1.34-3.7-1.74
	c-1.16-0.4-2.44-0.6-3.84-0.6c-2.11,0-3.93,0.44-5.46,1.33c-1.53,0.89-2.69,2.01-3.48,3.39c-0.79,1.37-1.18,2.77-1.18,4.21
	c0,2.32,0.83,4.34,2.48,6.05c1.65,1.72,4.12,3.57,7.39,5.57c2.23,1.31,4.02,2.47,5.36,3.49c1.34,1.02,2.38,2.1,3.12,3.25
	c0.73,1.15,1.1,2.42,1.1,3.8c0,1.38-0.38,2.69-1.13,3.92c-0.75,1.23-1.77,2.21-3.04,2.93c-1.28,0.72-2.66,1.09-4.17,1.09
	c-1.29,0-2.69-0.3-4.19-0.91c-1.5-0.61-2.75-1.57-3.74-2.88c-1.24-1.63-2.25-3.58-3.03-5.87h-0.72l1.57,10.01h0.61
	c0.2-0.96,0.56-1.43,1.09-1.43c0.07,0,0.99,0.38,2.76,1.14c1.34,0.55,2.42,0.93,3.21,1.16c0.8,0.22,1.74,0.33,2.84,0.33
	c2.18,0,4.15-0.53,5.92-1.58c1.77-1.05,3.16-2.41,4.16-4.08c1-1.66,1.5-3.3,1.5-4.91c0-1.88-0.48-3.56-1.45-5.04
	s-2.12-2.75-3.48-3.8c-1.35-1.04-3.21-2.3-5.56-3.77c-2.48-1.52-4.35-2.74-5.61-3.64C282.63,13.07,281.66,12.14,280.99,11.18"/>
</svg>
