<svg width="374" height="423" viewBox="0 0 374 423" fill="none"
    xmlns="http://www.w3.org/2000/svg">
    <path d="M211.493 422.98C155.001 422.98 101.89 400.981 61.9495 361.04C21.9988 321.089 0 267.987 0 211.495C0 155.003 21.9988 101.892 61.9397 61.9404C101.89 21.9991 155.001 0 211.493 0C267.984 0 316.803 20.3136 356.136 57.1977L331.002 83.9983C298.508 53.523 256.069 36.7468 211.493 36.7468C115.139 36.7468 36.7464 115.14 36.7464 211.495C36.7464 307.85 115.139 386.243 211.493 386.243C252.002 386.243 290.414 372.544 321.428 347.351L301.83 327.664C276.157 347.664 244.76 358.512 211.689 358.512C130.621 358.512 64.6737 292.563 64.6737 211.495C64.6737 130.427 130.631 64.4784 211.689 64.4784C249.19 64.4784 284.897 78.599 312.237 104.243L287.102 131.044C266.602 111.818 239.812 101.225 211.689 101.225C150.886 101.225 101.41 150.691 101.41 211.505C101.41 272.318 150.876 321.785 211.689 321.785C241.145 321.785 268.837 310.31 289.669 289.487L302.692 276.463L374 348.095L361.036 361.06C321.095 401.001 267.984 423 211.493 423V422.98Z" fill="#FF9A31"/>
</svg>
