<svg width="48" height="48" viewBox="0 0 48 48" fill="none" xmlns="http://www.w3.org/2000/svg">
<path d="M13.9429 6.94713C13.644 7.24541 13.4069 7.5997 13.2451 7.98974C13.0833 8.37977 13 8.79789 13 9.22015C13 9.64241 13.0833 10.0605 13.2451 10.4506C13.4069 10.8406 13.644 11.1949 13.9429 11.4932L26.4525 24.0028L13.9429 36.5125C13.6444 36.811 13.4076 37.1653 13.2461 37.5553C13.0845 37.9453 13.0014 38.3633 13.0014 38.7855C13.0014 39.2076 13.0845 39.6256 13.2461 40.0156C13.4076 40.4056 13.6444 40.76 13.9429 41.0585C14.2414 41.357 14.5957 41.5938 14.9857 41.7553C15.3758 41.9169 15.7938 42 16.2159 42C16.638 42 17.056 41.9169 17.446 41.7553C17.836 41.5938 18.1904 41.357 18.4889 41.0585L33.2877 26.2597C33.5866 25.9614 33.8237 25.6071 33.9855 25.2171C34.1473 24.8271 34.2306 24.4089 34.2306 23.9867C34.2306 23.5644 34.1473 23.1463 33.9855 22.7563C33.8237 22.3662 33.5866 22.0119 33.2877 21.7137L18.4889 6.91489C17.2637 5.68972 15.2003 5.68972 13.9429 6.94713Z" fill="currentColor"/>
</svg>
