<svg width="48" height="48" viewBox="0 0 48 48" fill="none" xmlns="http://www.w3.org/2000/svg">
<path d="M36.6 11.42C36.415 11.2346 36.1952 11.0875 35.9533 10.9871C35.7113 10.8868 35.4519 10.8351 35.19 10.8351C34.9281 10.8351 34.6687 10.8868 34.4268 10.9871C34.1848 11.0875 33.965 11.2346 33.78 11.42L24 21.18L14.22 11.4C14.0348 11.2148 13.815 11.0679 13.5731 10.9677C13.3312 10.8675 13.0719 10.8159 12.81 10.8159C12.5481 10.8159 12.2888 10.8675 12.0469 10.9677C11.805 11.0679 11.5852 11.2148 11.4 11.4C11.2148 11.5852 11.068 11.805 10.9678 12.0469C10.8675 12.2888 10.816 12.5481 10.816 12.81C10.816 13.0719 10.8675 13.3311 10.9678 13.5731C11.068 13.815 11.2148 14.0348 11.4 14.22L21.18 24L11.4 33.78C11.2148 33.9652 11.068 34.185 10.9678 34.4269C10.8675 34.6688 10.816 34.9281 10.816 35.19C10.816 35.4518 10.8675 35.7111 10.9678 35.9531C11.068 36.195 11.2148 36.4148 11.4 36.6C11.5852 36.7852 11.805 36.932 12.0469 37.0322C12.2888 37.1325 12.5481 37.184 12.81 37.184C13.0719 37.184 13.3312 37.1325 13.5731 37.0322C13.815 36.932 14.0348 36.7852 14.22 36.6L24 26.82L33.78 36.6C33.9652 36.7852 34.185 36.932 34.4269 37.0322C34.6688 37.1325 34.9281 37.184 35.19 37.184C35.4519 37.184 35.7112 37.1325 35.9531 37.0322C36.195 36.932 36.4148 36.7852 36.6 36.6C36.7852 36.4148 36.932 36.195 37.0323 35.9531C37.1325 35.7111 37.184 35.4518 37.184 35.19C37.184 34.9281 37.1325 34.6688 37.0323 34.4269C36.932 34.185 36.7852 33.9652 36.6 33.78L26.82 24L36.6 14.22C37.36 13.46 37.36 12.18 36.6 11.42Z" fill="currentColor"/>
</svg>
