<svg width="482" height="99" viewBox="0 0 482 99" fill="none" xmlns="http://www.w3.org/2000/svg">
<path d="M34.38 34.97H37.62C42.87 34.97 44.62 36.63 44.62 41.62V52.65C39.72 55.1 35.25 55.98 31.22 55.98C21.15 55.98 8.53999 48.01 8.53999 30.06C8.53999 15.96 16.42 3.17999 31.83 3.17999C39.98 3.17999 47.42 6.59001 49.78 17.54H51.53V3.35999H50.3C49.77 3.79999 49.08 3.97 48.29 3.97C46.45 3.97 40.23 0.98999 30.86 0.98999C9.49999 0.98999 0.299988 17.45 0.299988 30.59C0.299988 43.37 9.22999 58.17 28.41 58.17C32.09 58.17 43.21 57.12 51.88 52.65V40.48C51.88 36.71 53.63 35.23 58.01 34.96V33.38H34.38V34.97Z" fill="white"/>
<path d="M34.38 34.97H37.62C42.87 34.97 44.62 36.63 44.62 41.62V52.65C39.72 55.1 35.25 55.98 31.22 55.98C21.15 55.98 8.53999 48.01 8.53999 30.06C8.53999 15.96 16.42 3.17999 31.83 3.17999C39.98 3.17999 47.42 6.59001 49.78 17.54H51.53V3.35999H50.3C49.77 3.79999 49.08 3.97 48.29 3.97C46.45 3.97 40.23 0.98999 30.86 0.98999C9.49999 0.98999 0.299988 17.45 0.299988 30.59C0.299988 43.37 9.22999 58.17 28.41 58.17C32.09 58.17 43.21 57.12 51.88 52.65V40.48C51.88 36.71 53.63 35.23 58.01 34.96V33.38H34.38V34.97Z" stroke="white" strokeWidth="0.273" strokeMiterlimit="10"/>
<path d="M91.12 28.75L98.56 8.35001L106.26 28.75H91.12ZM107.76 55.1H105.48V56.76H129.56V55.1C125.18 55.1 123.35 54.22 121.59 49.58L103.29 0.98999H95.67L96.46 2.91L80.53 46.43C77.73 54.05 76.76 55.01 71.07 55.1V56.76H91.3V55.1H89.9C85.08 55.1 82.81 54.22 82.81 51.86C82.81 50.64 83.95 48.01 84.56 46.34L89.64 32.6H107.76L113.63 48.53C113.98 49.41 114.59 50.72 114.59 52.12C114.59 54.58 112.75 55.1 107.76 55.1Z" fill="white"/>
<path d="M91.12 28.75L98.56 8.35001L106.26 28.75H91.12ZM107.76 55.1H105.48V56.76H129.56V55.1C125.18 55.1 123.35 54.22 121.59 49.58L103.29 0.98999H95.67L96.46 2.91L80.53 46.43C77.73 54.05 76.76 55.01 71.07 55.1V56.76H91.3V55.1H89.9C85.08 55.1 82.81 54.22 82.81 51.86C82.81 50.64 83.95 48.01 84.56 46.34L89.64 32.6H107.76L113.63 48.53C113.98 49.41 114.59 50.72 114.59 52.12C114.59 54.58 112.75 55.1 107.76 55.1Z" stroke="white" strokeWidth="0.273" strokeMiterlimit="10"/>
<path d="M158.02 3.36002C159.6 3.19002 160.73 3.19003 162.4 3.19003C175.89 3.19003 179.56 9.49004 179.56 17.63C179.56 28.14 173.17 32.25 163.45 32.25C161.43 32.25 160.12 32.34 158.02 32.07V3.36002ZM162.48 33.92C164.84 33.92 166.24 33.83 168.43 33.74C170.53 35.14 173.6 37.68 177.45 41.53L183.23 47.31C191.02 55.1 194.96 58.43 210.29 57.73V56.15C203.55 55.71 198.21 52.47 193.04 47.31L186.12 40.39C182 36.27 179.38 33.82 176.13 31.29C183.31 29.19 187.78 23.67 187.78 17.1C187.78 8.17004 180.51 1.52002 164.31 1.52002C158.62 1.52002 156.87 1.61003 153.28 1.78003C149.69 1.96003 144.35 2.31003 142.24 2.31003V3.97003H144.17C149.25 3.97003 150.74 5.55004 150.74 10.98V47.84C150.74 53.71 148.9 55.11 143.73 55.11H142.24V56.77H167.02V55.11H165.01C160.11 55.11 158 53.8 158 48.54V33.74C159.42 33.83 160.55 33.92 162.48 33.92Z" fill="white"/>
<path d="M158.02 3.36002C159.6 3.19002 160.73 3.19003 162.4 3.19003C175.89 3.19003 179.56 9.49004 179.56 17.63C179.56 28.14 173.17 32.25 163.45 32.25C161.43 32.25 160.12 32.34 158.02 32.07V3.36002ZM162.48 33.92C164.84 33.92 166.24 33.83 168.43 33.74C170.53 35.14 173.6 37.68 177.45 41.53L183.23 47.31C191.02 55.1 194.96 58.43 210.29 57.73V56.15C203.55 55.71 198.21 52.47 193.04 47.31L186.12 40.39C182 36.27 179.38 33.82 176.13 31.29C183.31 29.19 187.78 23.67 187.78 17.1C187.78 8.17004 180.51 1.52002 164.31 1.52002C158.62 1.52002 156.87 1.61003 153.28 1.78003C149.69 1.96003 144.35 2.31003 142.24 2.31003V3.97003H144.17C149.25 3.97003 150.74 5.55004 150.74 10.98V47.84C150.74 53.71 148.9 55.11 143.73 55.11H142.24V56.77H167.02V55.11H165.01C160.11 55.11 158 53.8 158 48.54V33.74C159.42 33.83 160.55 33.92 162.48 33.92Z" stroke="white" strokeWidth="0.273" strokeMiterlimit="10"/>
<path d="M267.65 48.01C262.22 53.44 257.32 55.1 245.58 55.1C238.66 55.1 238.4 53.88 238.4 50.29V3.53003C239.45 3.44003 241.81 3.18002 245.4 3.18002C257.66 3.18002 263.88 6.25002 267.9 10.27C273.07 15.44 274.91 22.62 274.91 29.09C274.91 38.11 270.89 44.86 267.65 48.01ZM249.79 1.52002C245.24 1.52002 239.89 1.61003 235.08 1.78003C230.26 1.96003 225.97 2.13002 222.73 2.30002V3.96002H224.48C229.65 3.96002 231.13 5.36002 231.13 11.05V48.7C231.13 53.78 228.94 55.09 224.21 55.09H222.72V56.75H250.74C272.89 56.75 283.14 40.9 283.14 27.68C283.15 13.25 272.9 1.52002 249.79 1.52002Z" fill="white"/>
<path d="M267.65 48.01C262.22 53.44 257.32 55.1 245.58 55.1C238.66 55.1 238.4 53.88 238.4 50.29V3.53003C239.45 3.44003 241.81 3.18002 245.4 3.18002C257.66 3.18002 263.88 6.25002 267.9 10.27C273.07 15.44 274.91 22.62 274.91 29.09C274.91 38.11 270.89 44.86 267.65 48.01ZM249.79 1.52002C245.24 1.52002 239.89 1.61003 235.08 1.78003C230.26 1.96003 225.97 2.13002 222.73 2.30002V3.96002H224.48C229.65 3.96002 231.13 5.36002 231.13 11.05V48.7C231.13 53.78 228.94 55.09 224.21 55.09H222.72V56.75H250.74C272.89 56.75 283.14 40.9 283.14 27.68C283.15 13.25 272.9 1.52002 249.79 1.52002Z" stroke="white" strokeWidth="0.273" strokeMiterlimit="10"/>
<path d="M334.97 53.61H321.49C318.25 53.61 316.76 52.82 316.76 48.79V30.14H331.55C335.14 30.14 336.8 30.84 337.5 37.06H339.16V20.42H337.5C337.06 25.5 335.57 26.99 332.42 26.99H316.75V5.45001H335.22C338.37 5.45001 340.56 7.03 341.7 14.47H343.28L342.58 2.29999H300.57V3.95999H302.5C308.36 3.95999 309.5 6.05999 309.5 10.96V47.91C309.5 53.16 308.27 55.09 301.27 55.09H298.82V56.75H345.3L346.7 43.7H345.12C342.93 51.25 341.1 53.61 334.97 53.61Z" fill="white"/>
<path d="M334.97 53.61H321.49C318.25 53.61 316.76 52.82 316.76 48.79V30.14H331.55C335.14 30.14 336.8 30.84 337.5 37.06H339.16V20.42H337.5C337.06 25.5 335.57 26.99 332.42 26.99H316.75V5.45001H335.22C338.37 5.45001 340.56 7.03 341.7 14.47H343.28L342.58 2.29999H300.57V3.95999H302.5C308.36 3.95999 309.5 6.05999 309.5 10.96V47.91C309.5 53.16 308.27 55.09 301.27 55.09H298.82V56.75H345.3L346.7 43.7H345.12C342.93 51.25 341.1 53.61 334.97 53.61Z" stroke="white" strokeWidth="0.273" strokeMiterlimit="10"/>
<path d="M410.28 3.97C417.29 4.15 418.86 5.11001 418.86 10.45V45.3L377.61 2.31H363.86V3.97C366.93 4.06 369.2 4.76 371.22 6.16V49.24C371.22 53.27 369.47 55.11 364.04 55.11H363.69V56.77H384.01V55.11C376.57 55.11 375.17 53.8 375.17 47.49V9.92999L420.53 57.38H422.81V8.51999C422.81 5.10999 424.21 3.97 430.78 3.97V2.31H410.29V3.97H410.28Z" fill="white"/>
<path d="M410.28 3.97C417.29 4.15 418.86 5.11001 418.86 10.45V45.3L377.61 2.31H363.86V3.97C366.93 4.06 369.2 4.76 371.22 6.16V49.24C371.22 53.27 369.47 55.11 364.04 55.11H363.69V56.77H384.01V55.11C376.57 55.11 375.17 53.8 375.17 47.49V9.92999L420.53 57.38H422.81V8.51999C422.81 5.10999 424.21 3.97 430.78 3.97V2.31H410.29V3.97H410.28Z" stroke="white" strokeWidth="0.273" strokeMiterlimit="10"/>
<path d="M453.71 11.32C453.71 6.42004 457.73 3.09003 463.51 3.09003C469.55 3.09003 475.15 7.12004 477.59 13.42H479.08L477.59 2.30002H476.19C475.66 3.00002 475.32 3.17004 474.61 3.17004C471.55 3.17004 470.06 0.980042 462.71 0.980042C453.79 0.980042 447.14 6.41002 447.14 13.68C447.14 29 475.22 32.85 475.22 45.46C475.22 52.37 469.01 55.79 463.15 55.79C456.33 55.79 450.2 51.24 448.37 43.44H446.71L448.55 56.75H450.04C450.39 56.23 451 55.79 451.79 55.79C453.01 55.79 459.14 58.15 463.95 58.15C474.18 58.15 481.79 51.76 481.79 43.18C481.79 27.09 453.71 23.76 453.71 11.32Z" fill="white"/>
<path d="M453.71 11.32C453.71 6.42004 457.73 3.09003 463.51 3.09003C469.55 3.09003 475.15 7.12004 477.59 13.42H479.08L477.59 2.30002H476.19C475.66 3.00002 475.32 3.17004 474.61 3.17004C471.55 3.17004 470.06 0.980042 462.71 0.980042C453.79 0.980042 447.14 6.41002 447.14 13.68C447.14 29 475.22 32.85 475.22 45.46C475.22 52.37 469.01 55.79 463.15 55.79C456.33 55.79 450.2 51.24 448.37 43.44H446.71L448.55 56.75H450.04C450.39 56.23 451 55.79 451.79 55.79C453.01 55.79 459.14 58.15 463.95 58.15C474.18 58.15 481.79 51.76 481.79 43.18C481.79 27.09 453.71 23.76 453.71 11.32Z" stroke="white" strokeWidth="0.273" strokeMiterlimit="10"/>
<path d="M109.21 82.58C110.58 82.65 111.05 83.03 111.05 84.36V94.88C111.05 96.54 110.73 96.93 109.21 97V97.47H115.17V97C113.48 97 113.08 96.51 113.08 95.05V84.58C113.08 82.93 113.62 82.58 115.17 82.58V82.11H109.21V82.58Z" fill="white"/>
<path d="M109.21 82.58C110.58 82.65 111.05 83.03 111.05 84.36V94.88C111.05 96.54 110.73 96.93 109.21 97V97.47H115.17V97C113.48 97 113.08 96.51 113.08 95.05V84.58C113.08 82.93 113.62 82.58 115.17 82.58V82.11H109.21V82.58Z" stroke="white" strokeWidth="0.273" strokeMiterlimit="10"/>
<path d="M135.78 96.58H132.16C131.45 96.58 131.17 96.33 131.17 95.67V84.29C131.17 82.76 131.59 82.59 133.19 82.59H134.1V82.12H126.83V82.59H127.17C128.72 82.59 129.12 83.13 129.12 84.44V95.38C129.12 96.64 128.7 97.01 127.57 97.01H126.76V97.48H137.77L139.66 93.87H139.22C137.67 96.02 137.23 96.58 135.78 96.58Z" fill="white"/>
<path d="M135.78 96.58H132.16C131.45 96.58 131.17 96.33 131.17 95.67V84.29C131.17 82.76 131.59 82.59 133.19 82.59H134.1V82.12H126.83V82.59H127.17C128.72 82.59 129.12 83.13 129.12 84.44V95.38C129.12 96.64 128.7 97.01 127.57 97.01H126.76V97.48H137.77L139.66 93.87H139.22C137.67 96.02 137.23 96.58 135.78 96.58Z" stroke="white" strokeWidth="0.273" strokeMiterlimit="10"/>
<path d="M159.39 96.58H155.77C155.06 96.58 154.78 96.33 154.78 95.67V84.29C154.78 82.76 155.2 82.59 156.8 82.59H157.71V82.12H150.45V82.59H150.79C152.34 82.59 152.73 83.13 152.73 84.44V95.38C152.73 96.64 152.31 97.01 151.18 97.01H150.37V97.48H161.38L163.28 93.87H162.84C161.29 96.02 160.85 96.58 159.39 96.58Z" fill="white"/>
<path d="M159.39 96.58H155.77C155.06 96.58 154.78 96.33 154.78 95.67V84.29C154.78 82.76 155.2 82.59 156.8 82.59H157.71V82.12H150.45V82.59H150.79C152.34 82.59 152.73 83.13 152.73 84.44V95.38C152.73 96.64 152.31 97.01 151.18 97.01H150.37V97.48H161.38L163.28 93.87H162.84C161.29 96.02 160.85 96.58 159.39 96.58Z" stroke="white" strokeWidth="0.273" strokeMiterlimit="10"/>
<path d="M186.97 82.58C189.02 82.68 189.39 83.1 189.39 85.47V91.23C189.39 95.43 186.55 96.59 183.76 96.59C180.07 96.59 178.12 94.59 178.12 91.26V84.4C178.12 82.97 178.71 82.59 180.07 82.59H180.29V82.12H173.94V82.59C175.62 82.62 176.07 82.86 176.07 84.44V91.65C176.07 95.18 178.49 97.87 183.21 97.87C188.57 97.87 190.53 94.58 190.53 91.52V84.85C190.53 83.27 191.12 82.6 192.78 82.58V82.11H186.97V82.58Z" fill="white"/>
<path d="M186.97 82.58C189.02 82.68 189.39 83.1 189.39 85.47V91.23C189.39 95.43 186.55 96.59 183.76 96.59C180.07 96.59 178.12 94.59 178.12 91.26V84.4C178.12 82.97 178.71 82.59 180.07 82.59H180.29V82.12H173.94V82.59C175.62 82.62 176.07 82.86 176.07 84.44V91.65C176.07 95.18 178.49 97.87 183.21 97.87C188.57 97.87 190.53 94.58 190.53 91.52V84.85C190.53 83.27 191.12 82.6 192.78 82.58V82.11H186.97V82.58Z" stroke="white" strokeWidth="0.273" strokeMiterlimit="10"/>
<path d="M206.14 84.66C206.14 83.27 207.27 82.34 208.9 82.34C210.6 82.34 212.17 83.48 212.86 85.25H213.28L212.86 82.11H212.47C212.32 82.31 212.22 82.36 212.03 82.36C211.17 82.36 210.75 81.74 208.68 81.74C206.17 81.74 204.3 83.27 204.3 85.32C204.3 89.64 212.2 90.73 212.2 94.29C212.2 96.24 210.45 97.21 208.8 97.21C206.88 97.21 205.16 95.92 204.64 93.73H204.17L204.69 97.48H205.11C205.21 97.33 205.38 97.21 205.6 97.21C205.94 97.21 207.67 97.87 209.02 97.87C211.9 97.87 214.04 96.07 214.04 93.65C214.04 89.1 206.14 88.16 206.14 84.66Z" fill="white"/>
<path d="M206.14 84.66C206.14 83.27 207.27 82.34 208.9 82.34C210.6 82.34 212.17 83.48 212.86 85.25H213.28L212.86 82.11H212.47C212.32 82.31 212.22 82.36 212.03 82.36C211.17 82.36 210.75 81.74 208.68 81.74C206.17 81.74 204.3 83.27 204.3 85.32C204.3 89.64 212.2 90.73 212.2 94.29C212.2 96.24 210.45 97.21 208.8 97.21C206.88 97.21 205.16 95.92 204.64 93.73H204.17L204.69 97.48H205.11C205.21 97.33 205.38 97.21 205.6 97.21C205.94 97.21 207.67 97.87 209.02 97.87C211.9 97.87 214.04 96.07 214.04 93.65C214.04 89.1 206.14 88.16 206.14 84.66Z" stroke="white" strokeWidth="0.273" strokeMiterlimit="10"/>
<path d="M240.22 81.74C240.17 82.03 239.8 82.11 239.45 82.11H227.58C227.4 82.11 227.23 82.09 227.09 82.03C226.94 81.98 226.84 81.88 226.82 81.74H226.35L225.95 85.74H226.4C226.77 83.57 227.22 83 228.2 83H232.49V95.2C232.49 96.53 232.04 97 230.54 97H229.63V97.47H237.4V97H236.49C234.99 97 234.54 96.53 234.54 95.2V83H238.83C239.82 83 240.26 83.57 240.63 85.74H241.07L240.68 81.74H240.22Z" fill="white"/>
<path d="M240.22 81.74C240.17 82.03 239.8 82.11 239.45 82.11H227.58C227.4 82.11 227.23 82.09 227.09 82.03C226.94 81.98 226.84 81.88 226.82 81.74H226.35L225.95 85.74H226.4C226.77 83.57 227.22 83 228.2 83H232.49V95.2C232.49 96.53 232.04 97 230.54 97H229.63V97.47H237.4V97H236.49C234.99 97 234.54 96.53 234.54 95.2V83H238.83C239.82 83 240.26 83.57 240.63 85.74H241.07L240.68 81.74H240.22Z" stroke="white" strokeWidth="0.273" strokeMiterlimit="10"/>
<path d="M258.33 90.56C257.76 90.56 257.39 90.59 256.8 90.52V82.42C257.25 82.37 257.57 82.37 258.04 82.37C261.85 82.37 262.88 84.15 262.88 86.45C262.87 89.4 261.07 90.56 258.33 90.56ZM264.73 92.86C263.57 91.7 262.83 91.01 261.91 90.29C263.94 89.7 265.2 88.14 265.2 86.29C265.2 83.77 263.15 81.89 258.57 81.89C256.96 81.89 256.47 81.92 255.46 81.96C254.45 82.01 252.94 82.11 252.34 82.11V82.58H252.88C254.31 82.58 254.74 83.03 254.74 84.56V94.96C254.74 96.61 254.22 97.01 252.76 97.01H252.34V97.48H259.34V97.01H258.77C257.39 97.01 256.79 96.64 256.79 95.16V90.98C257.19 91.01 257.51 91.03 258.05 91.03C258.72 91.03 259.11 91.01 259.73 90.98C260.32 91.37 261.19 92.09 262.27 93.18L263.9 94.81C266.1 97.01 267.22 97.95 271.54 97.75V97.3C269.64 97.18 268.13 96.26 266.67 94.81L264.73 92.86Z" fill="white"/>
<path d="M258.33 90.56C257.76 90.56 257.39 90.59 256.8 90.52V82.42C257.25 82.37 257.57 82.37 258.04 82.37C261.85 82.37 262.88 84.15 262.88 86.45C262.87 89.4 261.07 90.56 258.33 90.56ZM264.73 92.86C263.57 91.7 262.83 91.01 261.91 90.29C263.94 89.7 265.2 88.14 265.2 86.29C265.2 83.77 263.15 81.89 258.57 81.89C256.96 81.89 256.47 81.92 255.46 81.96C254.45 82.01 252.94 82.11 252.34 82.11V82.58H252.88C254.31 82.58 254.74 83.03 254.74 84.56V94.96C254.74 96.61 254.22 97.01 252.76 97.01H252.34V97.48H259.34V97.01H258.77C257.39 97.01 256.79 96.64 256.79 95.16V90.98C257.19 91.01 257.51 91.03 258.05 91.03C258.72 91.03 259.11 91.01 259.73 90.98C260.32 91.37 261.19 92.09 262.27 93.18L263.9 94.81C266.1 97.01 267.22 97.95 271.54 97.75V97.3C269.64 97.18 268.13 96.26 266.67 94.81L264.73 92.86Z" stroke="white" strokeWidth="0.273" strokeMiterlimit="10"/>
<path d="M284.97 89.57L287.07 83.81L289.25 89.57H284.97ZM293.57 95.45L288.41 81.74H286.26L286.48 82.28L281.99 94.56C281.2 96.71 280.93 96.98 279.32 97V97.47H285.02V97H284.63C283.27 97 282.63 96.75 282.63 96.09C282.63 95.74 282.95 95 283.13 94.53L284.56 90.65H289.67L291.32 95.14C291.42 95.39 291.59 95.76 291.59 96.15C291.59 96.84 291.07 96.99 289.66 96.99H289.02V97.46H295.81V97C294.58 97 294.06 96.76 293.57 95.45Z" fill="white"/>
<path d="M284.97 89.57L287.07 83.81L289.25 89.57H284.97ZM293.57 95.45L288.41 81.74H286.26L286.48 82.28L281.99 94.56C281.2 96.71 280.93 96.98 279.32 97V97.47H285.02V97H284.63C283.27 97 282.63 96.75 282.63 96.09C282.63 95.74 282.95 95 283.13 94.53L284.56 90.65H289.67L291.32 95.14C291.42 95.39 291.59 95.76 291.59 96.15C291.59 96.84 291.07 96.99 289.66 96.99H289.02V97.46H295.81V97C294.58 97 294.06 96.76 293.57 95.45Z" stroke="white" strokeWidth="0.273" strokeMiterlimit="10"/>
<path d="M319.13 81.74C319.08 82.03 318.71 82.11 318.36 82.11H306.5C306.32 82.11 306.15 82.09 306.01 82.03C305.86 81.98 305.76 81.88 305.74 81.74H305.27L304.87 85.74H305.32C305.69 83.57 306.14 83 307.12 83H311.41V95.2C311.41 96.53 310.96 97 309.46 97H308.55V97.47H316.32V97H315.41C313.91 97 313.46 96.53 313.46 95.2V83H317.75C318.74 83 319.18 83.57 319.55 85.74H320L319.61 81.74H319.13Z" fill="white"/>
<path d="M319.13 81.74C319.08 82.03 318.71 82.11 318.36 82.11H306.5C306.32 82.11 306.15 82.09 306.01 82.03C305.86 81.98 305.76 81.88 305.74 81.74H305.27L304.87 85.74H305.32C305.69 83.57 306.14 83 307.12 83H311.41V95.2C311.41 96.53 310.96 97 309.46 97H308.55V97.47H316.32V97H315.41C313.91 97 313.46 96.53 313.46 95.2V83H317.75C318.74 83 319.18 83.57 319.55 85.74H320L319.61 81.74H319.13Z" stroke="white" strokeWidth="0.273" strokeMiterlimit="10"/>
<path d="M341.05 96.59H337.25C336.34 96.59 335.92 96.37 335.92 95.23V89.97H340.09C341.1 89.97 341.57 90.17 341.77 91.92H342.24V87.23H341.77C341.65 88.66 341.23 89.08 340.34 89.08H335.92V83H341.13C342.02 83 342.64 83.45 342.96 85.54H343.4L343.2 82.11H331.36V82.58H331.9C333.55 82.58 333.87 83.17 333.87 84.56V94.98C333.87 96.46 333.52 97 331.55 97H330.86V97.47H343.96L344.36 93.79H343.92C343.3 95.92 342.78 96.59 341.05 96.59Z" fill="white"/>
<path d="M341.05 96.59H337.25C336.34 96.59 335.92 96.37 335.92 95.23V89.97H340.09C341.1 89.97 341.57 90.17 341.77 91.92H342.24V87.23H341.77C341.65 88.66 341.23 89.08 340.34 89.08H335.92V83H341.13C342.02 83 342.64 83.45 342.96 85.54H343.4L343.2 82.11H331.36V82.58H331.9C333.55 82.58 333.87 83.17 333.87 84.56V94.98C333.87 96.46 333.52 97 331.55 97H330.86V97.47H343.96L344.36 93.79H343.92C343.3 95.92 342.78 96.59 341.05 96.59Z" stroke="white" strokeWidth="0.273" strokeMiterlimit="10"/>
<path d="M368.49 95.01C366.96 96.54 365.57 97.01 362.26 97.01C360.31 97.01 360.24 96.67 360.24 95.65V82.47C360.53 82.44 361.2 82.37 362.22 82.37C365.68 82.37 367.43 83.23 368.57 84.37C370.03 85.83 370.55 87.85 370.55 89.68C370.55 92.21 369.41 94.12 368.49 95.01ZM363.45 81.89C362.17 81.89 360.66 81.92 359.3 81.96C357.94 82.01 356.73 82.06 355.82 82.11V82.58H356.32C357.78 82.58 358.2 82.97 358.2 84.58V95.2C358.2 96.63 357.58 97 356.25 97H355.83V97.47H363.74C369.99 97.47 372.88 93 372.88 89.27C372.87 85.2 369.98 81.89 363.45 81.89Z" fill="white"/>
<path d="M368.49 95.01C366.96 96.54 365.57 97.01 362.26 97.01C360.31 97.01 360.24 96.67 360.24 95.65V82.47C360.53 82.44 361.2 82.37 362.22 82.37C365.68 82.37 367.43 83.23 368.57 84.37C370.03 85.83 370.55 87.85 370.55 89.68C370.55 92.21 369.41 94.12 368.49 95.01ZM363.45 81.89C362.17 81.89 360.66 81.92 359.3 81.96C357.94 82.01 356.73 82.06 355.82 82.11V82.58H356.32C357.78 82.58 358.2 82.97 358.2 84.58V95.2C358.2 96.63 357.58 97 356.25 97H355.83V97.47H363.74C369.99 97.47 372.88 93 372.88 89.27C372.87 85.2 369.98 81.89 363.45 81.89Z" stroke="white" strokeWidth="0.273" strokeMiterlimit="10"/>
</svg>
