<svg width="120" height="50" viewBox="0 0 482 98" fill="none"
     xmlns="http://www.w3.org/2000/svg">
    <path d="M34.38 34.68H37.62C42.87 34.68 44.62 36.34 44.62 41.33V52.36C39.72 54.81 35.25 55.69 31.22 55.69C21.15 55.69 8.53999 47.72 8.53999 29.77C8.53999 15.67 16.42 2.89001 31.83 2.89001C39.98 2.89001 47.42 6.30002 49.78 17.25H51.53V3.07002H50.3C49.77 3.51002 49.08 3.68001 48.29 3.68001C46.45 3.68001 40.23 0.700012 30.86 0.700012C9.49999 0.700012 0.299988 17.16 0.299988 30.3C0.299988 43.08 9.22999 57.88 28.41 57.88C32.09 57.88 43.21 56.83 51.88 52.36V40.19C51.88 36.42 53.63 34.94 58.01 34.67V33.09H34.38V34.68Z"
          fill="black"/>
    <path d="M34.38 34.68H37.62C42.87 34.68 44.62 36.34 44.62 41.33V52.36C39.72 54.81 35.25 55.69 31.22 55.69C21.15 55.69 8.53999 47.72 8.53999 29.77C8.53999 15.67 16.42 2.89001 31.83 2.89001C39.98 2.89001 47.42 6.30002 49.78 17.25H51.53V3.07002H50.3C49.77 3.51002 49.08 3.68001 48.29 3.68001C46.45 3.68001 40.23 0.700012 30.86 0.700012C9.49999 0.700012 0.299988 17.16 0.299988 30.3C0.299988 43.08 9.22999 57.88 28.41 57.88C32.09 57.88 43.21 56.83 51.88 52.36V40.19C51.88 36.42 53.63 34.94 58.01 34.67V33.09H34.38V34.68Z"
          stroke="black" stroke-width="0.273" stroke-miterlimit="10"/>
    <path d="M91.12 28.46L98.56 8.06001L106.26 28.46H91.12ZM107.76 54.81H105.48V56.47H129.56V54.81C125.18 54.81 123.35 53.93 121.59 49.29L103.29 0.700012H95.67L96.46 2.62001L80.53 46.14C77.73 53.76 76.76 54.72 71.07 54.81V56.47H91.3V54.81H89.9C85.08 54.81 82.81 53.93 82.81 51.57C82.81 50.35 83.95 47.72 84.56 46.05L89.64 32.31H107.76L113.63 48.24C113.98 49.12 114.59 50.43 114.59 51.83C114.59 54.29 112.75 54.81 107.76 54.81Z"
          fill="black"/>
    <path d="M91.12 28.46L98.56 8.06001L106.26 28.46H91.12ZM107.76 54.81H105.48V56.47H129.56V54.81C125.18 54.81 123.35 53.93 121.59 49.29L103.29 0.700012H95.67L96.46 2.62001L80.53 46.14C77.73 53.76 76.76 54.72 71.07 54.81V56.47H91.3V54.81H89.9C85.08 54.81 82.81 53.93 82.81 51.57C82.81 50.35 83.95 47.72 84.56 46.05L89.64 32.31H107.76L113.63 48.24C113.98 49.12 114.59 50.43 114.59 51.83C114.59 54.29 112.75 54.81 107.76 54.81Z"
          stroke="black" stroke-width="0.273" stroke-miterlimit="10"/>
    <path d="M158.02 3.07004C159.6 2.90004 160.73 2.90002 162.4 2.90002C175.89 2.90002 179.56 9.20004 179.56 17.35C179.56 27.86 173.17 31.97 163.45 31.97C161.43 31.97 160.12 32.06 158.02 31.79V3.07004ZM162.48 33.63C164.84 33.63 166.24 33.54 168.43 33.45C170.53 34.85 173.6 37.39 177.45 41.24L183.23 47.02C191.02 54.81 194.96 58.14 210.29 57.44V55.86C203.55 55.42 198.21 52.18 193.04 47.02L186.12 40.1C182 35.99 179.38 33.53 176.13 31C183.31 28.9 187.78 23.38 187.78 16.81C187.78 7.88003 180.51 1.22003 164.31 1.22003C158.62 1.22003 156.87 1.31003 153.28 1.48003C149.69 1.66003 144.35 2.01003 142.24 2.01003V3.67003H144.17C149.25 3.67003 150.74 5.25002 150.74 10.68V47.54C150.74 53.41 148.9 54.81 143.73 54.81H142.24V56.47H167.02V54.81H165.01C160.11 54.81 158 53.5 158 48.24V33.44C159.42 33.54 160.55 33.63 162.48 33.63Z"
          fill="black"/>
    <path d="M158.02 3.07004C159.6 2.90004 160.73 2.90002 162.4 2.90002C175.89 2.90002 179.56 9.20004 179.56 17.35C179.56 27.86 173.17 31.97 163.45 31.97C161.43 31.97 160.12 32.06 158.02 31.79V3.07004ZM162.48 33.63C164.84 33.63 166.24 33.54 168.43 33.45C170.53 34.85 173.6 37.39 177.45 41.24L183.23 47.02C191.02 54.81 194.96 58.14 210.29 57.44V55.86C203.55 55.42 198.21 52.18 193.04 47.02L186.12 40.1C182 35.99 179.38 33.53 176.13 31C183.31 28.9 187.78 23.38 187.78 16.81C187.78 7.88003 180.51 1.22003 164.31 1.22003C158.62 1.22003 156.87 1.31003 153.28 1.48003C149.69 1.66003 144.35 2.01003 142.24 2.01003V3.67003H144.17C149.25 3.67003 150.74 5.25002 150.74 10.68V47.54C150.74 53.41 148.9 54.81 143.73 54.81H142.24V56.47H167.02V54.81H165.01C160.11 54.81 158 53.5 158 48.24V33.44C159.42 33.54 160.55 33.63 162.48 33.63Z"
          stroke="black" stroke-width="0.273" stroke-miterlimit="10"/>
    <path d="M267.65 47.72C262.22 53.15 257.32 54.81 245.58 54.81C238.66 54.81 238.4 53.59 238.4 50V3.24002C239.45 3.15002 241.81 2.89001 245.4 2.89001C257.66 2.89001 263.88 5.96001 267.9 9.98001C273.07 15.14 274.91 22.32 274.91 28.8C274.91 37.83 270.89 44.57 267.65 47.72ZM249.79 1.23001C245.24 1.23001 239.89 1.32002 235.08 1.49002C230.26 1.67002 225.97 1.84001 222.73 2.01001V3.67001H224.48C229.65 3.67001 231.13 5.07001 231.13 10.76V48.41C231.13 53.49 228.94 54.8 224.21 54.8H222.72V56.46H250.74C272.89 56.46 283.14 40.61 283.14 27.39C283.15 12.96 272.9 1.23001 249.79 1.23001Z"
          fill="black"/>
    <path d="M267.65 47.72C262.22 53.15 257.32 54.81 245.58 54.81C238.66 54.81 238.4 53.59 238.4 50V3.24002C239.45 3.15002 241.81 2.89001 245.4 2.89001C257.66 2.89001 263.88 5.96001 267.9 9.98001C273.07 15.14 274.91 22.32 274.91 28.8C274.91 37.83 270.89 44.57 267.65 47.72ZM249.79 1.23001C245.24 1.23001 239.89 1.32002 235.08 1.49002C230.26 1.67002 225.97 1.84001 222.73 2.01001V3.67001H224.48C229.65 3.67001 231.13 5.07001 231.13 10.76V48.41C231.13 53.49 228.94 54.8 224.21 54.8H222.72V56.46H250.74C272.89 56.46 283.14 40.61 283.14 27.39C283.15 12.96 272.9 1.23001 249.79 1.23001Z"
          stroke="black" stroke-width="0.273" stroke-miterlimit="10"/>
    <path d="M334.97 53.33H321.49C318.25 53.33 316.76 52.54 316.76 48.51V29.86H331.55C335.14 29.86 336.8 30.56 337.5 36.78H339.16V20.14H337.5C337.06 25.22 335.57 26.71 332.42 26.71H316.75V5.17001H335.22C338.37 5.17001 340.56 6.75002 341.7 14.19H343.28L342.58 2.02002H300.57V3.68001H302.5C308.36 3.68001 309.5 5.78001 309.5 10.68V47.63C309.5 52.88 308.27 54.81 301.27 54.81H298.82V56.47H345.3L346.7 43.42H345.12C342.93 50.96 341.1 53.33 334.97 53.33Z"
          fill="black"/>
    <path d="M334.97 53.33H321.49C318.25 53.33 316.76 52.54 316.76 48.51V29.86H331.55C335.14 29.86 336.8 30.56 337.5 36.78H339.16V20.14H337.5C337.06 25.22 335.57 26.71 332.42 26.71H316.75V5.17001H335.22C338.37 5.17001 340.56 6.75002 341.7 14.19H343.28L342.58 2.02002H300.57V3.68001H302.5C308.36 3.68001 309.5 5.78001 309.5 10.68V47.63C309.5 52.88 308.27 54.81 301.27 54.81H298.82V56.47H345.3L346.7 43.42H345.12C342.93 50.96 341.1 53.33 334.97 53.33Z"
          stroke="black" stroke-width="0.273" stroke-miterlimit="10"/>
    <path d="M410.28 3.68001C417.29 3.86001 418.86 4.82002 418.86 10.16V45.01L377.61 2.02002H363.86V3.68001C366.93 3.77001 369.2 4.47001 371.22 5.87001V48.95C371.22 52.98 369.47 54.82 364.04 54.82H363.69V56.48H384.01V54.82C376.57 54.82 375.17 53.51 375.17 47.2V9.64001L420.53 57.1H422.81V8.24002C422.81 4.83002 424.21 3.69002 430.78 3.69002V2.03001H410.29V3.68001H410.28Z"
          fill="black"/>
    <path d="M410.28 3.68001C417.29 3.86001 418.86 4.82002 418.86 10.16V45.01L377.61 2.02002H363.86V3.68001C366.93 3.77001 369.2 4.47001 371.22 5.87001V48.95C371.22 52.98 369.47 54.82 364.04 54.82H363.69V56.48H384.01V54.82C376.57 54.82 375.17 53.51 375.17 47.2V9.64001L420.53 57.1H422.81V8.24002C422.81 4.83002 424.21 3.69002 430.78 3.69002V2.03001H410.29V3.68001H410.28Z"
          stroke="black" stroke-width="0.273" stroke-miterlimit="10"/>
    <path d="M453.71 11.04C453.71 6.14001 457.73 2.81001 463.51 2.81001C469.55 2.81001 475.15 6.84001 477.59 13.14H479.08L477.59 2.02002H476.19C475.66 2.72002 475.32 2.89001 474.61 2.89001C471.55 2.89001 470.06 0.700012 462.71 0.700012C453.79 0.700012 447.14 6.13001 447.14 13.4C447.14 28.72 475.22 32.57 475.22 45.18C475.22 52.09 469.01 55.51 463.15 55.51C456.33 55.51 450.2 50.96 448.37 43.17H446.71L448.55 56.48H450.04C450.39 55.96 451 55.52 451.79 55.52C453.01 55.52 459.14 57.88 463.95 57.88C474.18 57.88 481.79 51.49 481.79 42.91C481.79 26.8 453.71 23.47 453.71 11.04Z"
          fill="black"/>
    <path d="M453.71 11.04C453.71 6.14001 457.73 2.81001 463.51 2.81001C469.55 2.81001 475.15 6.84001 477.59 13.14H479.08L477.59 2.02002H476.19C475.66 2.72002 475.32 2.89001 474.61 2.89001C471.55 2.89001 470.06 0.700012 462.71 0.700012C453.79 0.700012 447.14 6.13001 447.14 13.4C447.14 28.72 475.22 32.57 475.22 45.18C475.22 52.09 469.01 55.51 463.15 55.51C456.33 55.51 450.2 50.96 448.37 43.17H446.71L448.55 56.48H450.04C450.39 55.96 451 55.52 451.79 55.52C453.01 55.52 459.14 57.88 463.95 57.88C474.18 57.88 481.79 51.49 481.79 42.91C481.79 26.8 453.71 23.47 453.71 11.04Z"
          stroke="black" stroke-width="0.273" stroke-miterlimit="10"/>
    <path d="M109.21 82.29C110.58 82.36 111.05 82.74 111.05 84.07V94.59C111.05 96.25 110.73 96.64 109.21 96.71V97.18H115.17V96.71C113.48 96.71 113.08 96.22 113.08 94.76V84.29C113.08 82.64 113.62 82.29 115.17 82.29V81.82H109.21V82.29Z"
          fill="black"/>
    <path d="M109.21 82.29C110.58 82.36 111.05 82.74 111.05 84.07V94.59C111.05 96.25 110.73 96.64 109.21 96.71V97.18H115.17V96.71C113.48 96.71 113.08 96.22 113.08 94.76V84.29C113.08 82.64 113.62 82.29 115.17 82.29V81.82H109.21V82.29Z"
          stroke="black" stroke-width="0.273" stroke-miterlimit="10"/>
    <path d="M135.78 96.3H132.16C131.45 96.3 131.17 96.05 131.17 95.39V84C131.17 82.47 131.59 82.3 133.19 82.3H134.1V81.83H126.83V82.3H127.17C128.72 82.3 129.12 82.84 129.12 84.15V95.09C129.12 96.35 128.7 96.72 127.57 96.72H126.76V97.19H137.77L139.66 93.59H139.22C137.67 95.73 137.23 96.3 135.78 96.3Z"
          fill="black"/>
    <path d="M135.78 96.3H132.16C131.45 96.3 131.17 96.05 131.17 95.39V84C131.17 82.47 131.59 82.3 133.19 82.3H134.1V81.83H126.83V82.3H127.17C128.72 82.3 129.12 82.84 129.12 84.15V95.09C129.12 96.35 128.7 96.72 127.57 96.72H126.76V97.19H137.77L139.66 93.59H139.22C137.67 95.73 137.23 96.3 135.78 96.3Z"
          stroke="black" stroke-width="0.273" stroke-miterlimit="10"/>
    <path d="M159.39 96.3H155.77C155.06 96.3 154.78 96.05 154.78 95.39V84C154.78 82.47 155.2 82.3 156.8 82.3H157.71V81.83H150.45V82.3H150.79C152.34 82.3 152.73 82.84 152.73 84.15V95.09C152.73 96.35 152.31 96.72 151.18 96.72H150.37V97.19H161.38L163.28 93.59H162.84C161.29 95.73 160.85 96.3 159.39 96.3Z"
          fill="black"/>
    <path d="M159.39 96.3H155.77C155.06 96.3 154.78 96.05 154.78 95.39V84C154.78 82.47 155.2 82.3 156.8 82.3H157.71V81.83H150.45V82.3H150.79C152.34 82.3 152.73 82.84 152.73 84.15V95.09C152.73 96.35 152.31 96.72 151.18 96.72H150.37V97.19H161.38L163.28 93.59H162.84C161.29 95.73 160.85 96.3 159.39 96.3Z"
          stroke="black" stroke-width="0.273" stroke-miterlimit="10"/>
    <path d="M186.97 82.29C189.02 82.39 189.39 82.81 189.39 85.18V90.94C189.39 95.14 186.55 96.3 183.76 96.3C180.07 96.3 178.12 94.3 178.12 90.97V84.11C178.12 82.68 178.71 82.3 180.07 82.3H180.29V81.83H173.94V82.3C175.62 82.33 176.07 82.57 176.07 84.15V91.36C176.07 94.89 178.49 97.58 183.21 97.58C188.57 97.58 190.53 94.29 190.53 91.23V84.56C190.53 82.98 191.12 82.31 192.78 82.29V81.82H186.97V82.29Z"
          fill="black"/>
    <path d="M186.97 82.29C189.02 82.39 189.39 82.81 189.39 85.18V90.94C189.39 95.14 186.55 96.3 183.76 96.3C180.07 96.3 178.12 94.3 178.12 90.97V84.11C178.12 82.68 178.71 82.3 180.07 82.3H180.29V81.83H173.94V82.3C175.62 82.33 176.07 82.57 176.07 84.15V91.36C176.07 94.89 178.49 97.58 183.21 97.58C188.57 97.58 190.53 94.29 190.53 91.23V84.56C190.53 82.98 191.12 82.31 192.78 82.29V81.82H186.97V82.29Z"
          stroke="black" stroke-width="0.273" stroke-miterlimit="10"/>
    <path d="M206.14 84.37C206.14 82.98 207.27 82.05 208.9 82.05C210.6 82.05 212.17 83.19 212.86 84.96H213.28L212.86 81.82H212.47C212.32 82.02 212.22 82.07 212.03 82.07C211.17 82.07 210.75 81.45 208.68 81.45C206.17 81.45 204.3 82.98 204.3 85.03C204.3 89.35 212.2 90.44 212.2 94C212.2 95.95 210.45 96.92 208.8 96.92C206.88 96.92 205.16 95.63 204.64 93.44H204.17L204.69 97.19H205.11C205.21 97.04 205.38 96.92 205.6 96.92C205.94 96.92 207.67 97.58 209.02 97.58C211.9 97.58 214.04 95.78 214.04 93.36C214.04 88.81 206.14 87.88 206.14 84.37Z"
          fill="black"/>
    <path d="M206.14 84.37C206.14 82.98 207.27 82.05 208.9 82.05C210.6 82.05 212.17 83.19 212.86 84.96H213.28L212.86 81.82H212.47C212.32 82.02 212.22 82.07 212.03 82.07C211.17 82.07 210.75 81.45 208.68 81.45C206.17 81.45 204.3 82.98 204.3 85.03C204.3 89.35 212.2 90.44 212.2 94C212.2 95.95 210.45 96.92 208.8 96.92C206.88 96.92 205.16 95.63 204.64 93.44H204.17L204.69 97.19H205.11C205.21 97.04 205.38 96.92 205.6 96.92C205.94 96.92 207.67 97.58 209.02 97.58C211.9 97.58 214.04 95.78 214.04 93.36C214.04 88.81 206.14 87.88 206.14 84.37Z"
          stroke="black" stroke-width="0.273" stroke-miterlimit="10"/>
    <path d="M240.22 81.45C240.17 81.74 239.8 81.82 239.45 81.82H227.58C227.4 81.82 227.23 81.8 227.09 81.74C226.94 81.69 226.84 81.59 226.82 81.45H226.35L225.95 85.45H226.4C226.77 83.28 227.22 82.71 228.2 82.71H232.49V94.91C232.49 96.24 232.04 96.71 230.54 96.71H229.63V97.18H237.4V96.71H236.49C234.99 96.71 234.54 96.24 234.54 94.91V82.71H238.83C239.82 82.71 240.26 83.28 240.63 85.45H241.07L240.68 81.45H240.22Z"
          fill="black"/>
    <path d="M240.22 81.45C240.17 81.74 239.8 81.82 239.45 81.82H227.58C227.4 81.82 227.23 81.8 227.09 81.74C226.94 81.69 226.84 81.59 226.82 81.45H226.35L225.95 85.45H226.4C226.77 83.28 227.22 82.71 228.2 82.71H232.49V94.91C232.49 96.24 232.04 96.71 230.54 96.71H229.63V97.18H237.4V96.71H236.49C234.99 96.71 234.54 96.24 234.54 94.91V82.71H238.83C239.82 82.71 240.26 83.28 240.63 85.45H241.07L240.68 81.45H240.22Z"
          stroke="black" stroke-width="0.273" stroke-miterlimit="10"/>
    <path d="M258.33 90.27C257.76 90.27 257.39 90.3 256.8 90.23V82.13C257.25 82.08 257.57 82.08 258.04 82.08C261.85 82.08 262.88 83.86 262.88 86.16C262.87 89.11 261.07 90.27 258.33 90.27ZM264.73 92.57C263.57 91.41 262.83 90.72 261.91 90C263.94 89.41 265.2 87.85 265.2 86C265.2 83.48 263.15 81.6 258.57 81.6C256.96 81.6 256.47 81.63 255.46 81.67C254.45 81.72 252.94 81.82 252.34 81.82V82.29H252.88C254.31 82.29 254.74 82.74 254.74 84.27V94.67C254.74 96.32 254.22 96.72 252.76 96.72H252.34V97.19H259.34V96.72H258.77C257.39 96.72 256.79 96.35 256.79 94.87V90.69C257.19 90.72 257.51 90.74 258.05 90.74C258.72 90.74 259.11 90.72 259.73 90.69C260.32 91.08 261.19 91.8 262.27 92.89L263.9 94.52C266.1 96.72 267.22 97.66 271.54 97.46V97.01C269.64 96.89 268.13 95.97 266.67 94.52L264.73 92.57Z"
          fill="black"/>
    <path d="M258.33 90.27C257.76 90.27 257.39 90.3 256.8 90.23V82.13C257.25 82.08 257.57 82.08 258.04 82.08C261.85 82.08 262.88 83.86 262.88 86.16C262.87 89.11 261.07 90.27 258.33 90.27ZM264.73 92.57C263.57 91.41 262.83 90.72 261.91 90C263.94 89.41 265.2 87.85 265.2 86C265.2 83.48 263.15 81.6 258.57 81.6C256.96 81.6 256.47 81.63 255.46 81.67C254.45 81.72 252.94 81.82 252.34 81.82V82.29H252.88C254.31 82.29 254.74 82.74 254.74 84.27V94.67C254.74 96.32 254.22 96.72 252.76 96.72H252.34V97.19H259.34V96.72H258.77C257.39 96.72 256.79 96.35 256.79 94.87V90.69C257.19 90.72 257.51 90.74 258.05 90.74C258.72 90.74 259.11 90.72 259.73 90.69C260.32 91.08 261.19 91.8 262.27 92.89L263.9 94.52C266.1 96.72 267.22 97.66 271.54 97.46V97.01C269.64 96.89 268.13 95.97 266.67 94.52L264.73 92.57Z"
          stroke="black" stroke-width="0.273" stroke-miterlimit="10"/>
    <path d="M284.97 89.28L287.07 83.52L289.25 89.28H284.97ZM293.57 95.16L288.41 81.45H286.26L286.48 81.99L281.99 94.27C281.2 96.42 280.93 96.69 279.32 96.71V97.18H285.02V96.71H284.63C283.27 96.71 282.63 96.46 282.63 95.8C282.63 95.45 282.95 94.71 283.13 94.24L284.56 90.36H289.67L291.32 94.85C291.42 95.1 291.59 95.47 291.59 95.86C291.59 96.55 291.07 96.7 289.66 96.7H289.02V97.17H295.81V96.7C294.58 96.72 294.06 96.47 293.57 95.16Z"
          fill="black"/>
    <path d="M284.97 89.28L287.07 83.52L289.25 89.28H284.97ZM293.57 95.16L288.41 81.45H286.26L286.48 81.99L281.99 94.27C281.2 96.42 280.93 96.69 279.32 96.71V97.18H285.02V96.71H284.63C283.27 96.71 282.63 96.46 282.63 95.8C282.63 95.45 282.95 94.71 283.13 94.24L284.56 90.36H289.67L291.32 94.85C291.42 95.1 291.59 95.47 291.59 95.86C291.59 96.55 291.07 96.7 289.66 96.7H289.02V97.17H295.81V96.7C294.58 96.72 294.06 96.47 293.57 95.16Z"
          stroke="black" stroke-width="0.273" stroke-miterlimit="10"/>
    <path d="M319.13 81.45C319.08 81.74 318.71 81.82 318.36 81.82H306.5C306.32 81.82 306.15 81.8 306.01 81.74C305.86 81.69 305.76 81.59 305.74 81.45H305.27L304.87 85.45H305.32C305.69 83.28 306.14 82.71 307.12 82.71H311.41V94.91C311.41 96.24 310.96 96.71 309.46 96.71H308.55V97.18H316.32V96.71H315.41C313.91 96.71 313.46 96.24 313.46 94.91V82.71H317.75C318.74 82.71 319.18 83.28 319.55 85.45H320L319.61 81.45H319.13Z"
          fill="black"/>
    <path d="M319.13 81.45C319.08 81.74 318.71 81.82 318.36 81.82H306.5C306.32 81.82 306.15 81.8 306.01 81.74C305.86 81.69 305.76 81.59 305.74 81.45H305.27L304.87 85.45H305.32C305.69 83.28 306.14 82.71 307.12 82.71H311.41V94.91C311.41 96.24 310.96 96.71 309.46 96.71H308.55V97.18H316.32V96.71H315.41C313.91 96.71 313.46 96.24 313.46 94.91V82.71H317.75C318.74 82.71 319.18 83.28 319.55 85.45H320L319.61 81.45H319.13Z"
          stroke="black" stroke-width="0.273" stroke-miterlimit="10"/>
    <path d="M341.05 96.3H337.25C336.34 96.3 335.92 96.08 335.92 94.94V89.68H340.09C341.1 89.68 341.57 89.88 341.77 91.63H342.24V86.94H341.77C341.65 88.37 341.23 88.79 340.34 88.79H335.92V82.72H341.13C342.02 82.72 342.64 83.17 342.96 85.26H343.4L343.2 81.83H331.36V82.3H331.9C333.55 82.3 333.87 82.89 333.87 84.28V94.7C333.87 96.18 333.52 96.72 331.55 96.72H330.86V97.19H343.96L344.36 93.51H343.92C343.3 95.63 342.78 96.3 341.05 96.3Z"
          fill="black"/>
    <path d="M341.05 96.3H337.25C336.34 96.3 335.92 96.08 335.92 94.94V89.68H340.09C341.1 89.68 341.57 89.88 341.77 91.63H342.24V86.94H341.77C341.65 88.37 341.23 88.79 340.34 88.79H335.92V82.72H341.13C342.02 82.72 342.64 83.17 342.96 85.26H343.4L343.2 81.83H331.36V82.3H331.9C333.55 82.3 333.87 82.89 333.87 84.28V94.7C333.87 96.18 333.52 96.72 331.55 96.72H330.86V97.19H343.96L344.36 93.51H343.92C343.3 95.63 342.78 96.3 341.05 96.3Z"
          stroke="black" stroke-width="0.273" stroke-miterlimit="10"/>
    <path d="M368.49 94.72C366.96 96.25 365.57 96.72 362.26 96.72C360.31 96.72 360.24 96.38 360.24 95.36V82.18C360.53 82.15 361.2 82.08 362.22 82.08C365.68 82.08 367.43 82.94 368.57 84.08C370.03 85.54 370.55 87.56 370.55 89.39C370.55 91.92 369.41 93.83 368.49 94.72ZM363.45 81.6C362.17 81.6 360.66 81.63 359.3 81.67C357.94 81.72 356.73 81.77 355.82 81.82V82.29H356.32C357.78 82.29 358.2 82.68 358.2 84.29V94.91C358.2 96.34 357.58 96.71 356.25 96.71H355.83V97.18H363.74C369.99 97.18 372.88 92.71 372.88 88.98C372.87 84.91 369.98 81.6 363.45 81.6Z"
          fill="black"/>
    <path d="M368.49 94.72C366.96 96.25 365.57 96.72 362.26 96.72C360.31 96.72 360.24 96.38 360.24 95.36V82.18C360.53 82.15 361.2 82.08 362.22 82.08C365.68 82.08 367.43 82.94 368.57 84.08C370.03 85.54 370.55 87.56 370.55 89.39C370.55 91.92 369.41 93.83 368.49 94.72ZM363.45 81.6C362.17 81.6 360.66 81.63 359.3 81.67C357.94 81.72 356.73 81.77 355.82 81.82V82.29H356.32C357.78 82.29 358.2 82.68 358.2 84.29V94.91C358.2 96.34 357.58 96.71 356.25 96.71H355.83V97.18H363.74C369.99 97.18 372.88 92.71 372.88 88.98C372.87 84.91 369.98 81.6 363.45 81.6Z"
          stroke="black" stroke-width="0.273" stroke-miterlimit="10"/>
</svg>
