<svg width="591" height="34" viewBox="0 0 591 34" fill="none"
      xmlns="http://www.w3.org/2000/svg">
      <g clip-path="url(#clip0_1_14)">
            <path d="M25.8567 11.2974C24.0584 7.071 21.5353 4.93534 16.6592 4.93534C10.5932 4.93534 5.76184 8.87464 5.76184 16.9955C5.76184 25.1164 10.5932 29.0557 16.6592 29.0557C21.5443 29.0557 24.0584 26.92 25.8567 22.6936L31.198 23.9319C29.346 30.1953 24.3089 34 16.6503 34C7.96279 34 0 28.2481 0 16.9955C0 5.74294 7.96279 0 16.6503 0C24.3089 0 29.346 3.79572 31.198 10.0681L25.8567 11.3064V11.2974Z" fill="black"/>
            <path d="M61.2687 18.3236L71.6562 33.6142H64.9728L54.8448 18.7094H50.6845V33.6142H45.03V0.376892H57.6184C64.4002 0.376892 68.2563 3.89444 68.2563 9.53868C68.2563 14.0971 65.7422 17.2288 61.2687 18.3236ZM62.5034 9.53868C62.5034 6.59542 60.4993 5.31223 57.7705 5.31223H50.6755V13.7651H57.7705C60.4993 13.7651 62.5034 12.4819 62.5034 9.53868Z" fill="black"/>
            <path d="M83.5646 0.376892H89.219V21.886C89.219 26.3996 91.6884 29.0557 96.5197 29.0557C101.351 29.0557 103.82 26.3996 103.82 21.886V0.376892H109.475V21.6527C109.475 29.6749 103.874 34 96.5197 34C89.1653 34 83.5646 29.63 83.5646 21.6527V0.376892Z" fill="black"/>
            <path d="M124.685 0.376892H130.339V33.6142H124.685V0.376892Z" fill="black"/>
            <path d="M160.607 8.40802C159.166 5.89549 157.368 4.75587 155.265 4.75587C152.948 4.75587 151.517 6.41594 151.517 8.36316C151.517 14.9137 166.941 13.6305 166.941 23.887C166.941 29.962 162.164 34 155.686 34C149.208 34 145.093 30.0607 143.813 24.7395L148.439 22.0296C149.468 25.7356 151.57 29.0557 155.686 29.0557C158.925 29.0557 161.188 27.0098 161.188 24.0665C161.188 17.5608 145.871 18.9876 145.871 8.73106C145.871 3.69702 150.031 -0.00897217 155.274 -0.00897217C160.213 -0.00897217 163.291 2.4587 165.197 5.59039L160.625 8.39008L160.607 8.40802Z" fill="black"/>
            <path d="M202.291 0.376892V5.3212H186.616V13.4869H199.258V18.4223H186.616V28.6788H202.81V33.6142H180.961V0.376892H202.291Z" fill="black"/>
            <path d="M262.477 11.2974C260.678 7.071 258.155 4.93534 253.279 4.93534C247.213 4.93534 242.382 8.87464 242.382 16.9955C242.382 25.1164 247.213 29.0557 253.279 29.0557C258.164 29.0557 260.678 26.92 262.477 22.6936L267.818 23.9319C265.966 30.1953 260.929 34 253.27 34C244.583 34 236.62 28.2571 236.62 17.0045C236.62 5.75191 244.592 0 253.279 0C260.938 0 265.975 3.79572 267.827 10.0681L262.486 11.3064L262.477 11.2974Z" fill="black"/>
            <path d="M312.437 16.9955C312.437 28.3468 304.724 33.991 295.938 33.991C287.152 33.991 279.44 28.3378 279.44 16.9955C279.44 5.65321 287.144 0 295.938 0C304.733 0 312.437 5.65321 312.437 16.9955ZM285.193 16.9955C285.193 25.2061 290.123 29.0557 295.938 29.0557C301.754 29.0557 306.684 25.2061 306.684 16.9955C306.684 8.7849 301.754 4.93534 295.938 4.93534C290.123 4.93534 285.193 8.7849 285.193 16.9955Z" fill="black"/>
            <path d="M331.914 0.376892V28.6788H347.437V33.6142H326.26V0.376892H331.914Z" fill="black"/>
            <path d="M366.548 0.376892V28.6788H382.071V33.6142H360.893V0.376892H366.548Z" fill="black"/>
            <path d="M416.865 0.376892V5.3212H401.19V13.4869H413.832V18.4223H401.19V28.6788H417.384V33.6142H395.536V0.376892H416.865Z" fill="black"/>
            <path d="M455.472 11.2974C453.673 7.071 451.15 4.93534 446.274 4.93534C440.208 4.93534 435.377 8.87464 435.377 16.9955C435.377 25.1164 440.208 29.0557 446.274 29.0557C451.159 29.0557 453.673 26.92 455.472 22.6936L460.813 23.9319C458.961 30.1953 453.924 34 446.265 34C437.578 34 429.615 28.2571 429.615 17.0045C429.615 5.75191 437.578 0 446.265 0C453.924 0 458.961 3.79572 460.813 10.0681L455.472 11.3064V11.2974Z" fill="black"/>
            <path d="M470.986 0.376892H496.789V5.3212H486.714V33.6231H481.06V5.3212H470.986V0.376892Z" fill="black"/>
            <path d="M509.377 0.376892H515.031V33.6142H509.377V0.376892Z" fill="black"/>
            <path d="M539.448 33.6142L527.164 0.376892H533.23L542.275 26.3009L551.32 0.376892H557.386L545.102 33.6142H539.448Z" fill="black"/>
            <path d="M590.481 0.376892V5.3212H574.806V13.4869H587.448V18.4223H574.806V28.6788H591V33.6142H569.152V0.376892H590.481Z" fill="black"/>
      </g>
      <defs>
            <clipPath id="clip0_1_14">
                  <rect width="591" height="34" fill="white"/>
            </clipPath>
      </defs>
</svg>
