<svg width="500" height="29" viewBox="0 0 500 29" fill="none" xmlns="http://www.w3.org/2000/svg">
<path d="M21.8754 9.55651C20.3539 5.98084 18.2194 4.17402 14.0941 4.17402C8.96209 4.17402 4.87465 7.50676 4.87465 14.3772C4.87465 21.2477 8.96209 24.5804 14.0941 24.5804C18.227 24.5804 20.3539 22.7736 21.8754 19.1979L26.3943 20.2456C24.8274 25.5445 20.5659 28.7634 14.0865 28.7634C6.73671 28.7634 0 23.8972 0 14.3772C0 4.85727 6.73671 -0.0013909 14.0865 -0.0013909C20.5659 -0.0013909 24.8274 3.20988 26.3943 8.51645L21.8754 9.5641V9.55651Z" fill="black"/>
<path d="M51.834 15.5008L60.622 28.437H54.9678L46.3993 15.8273H42.8795V28.437H38.0957V0.31752H48.7458C54.4833 0.31752 57.7457 3.29345 57.7457 8.06861C57.7457 11.9252 55.6187 14.5747 51.834 15.5008ZM52.8786 8.06861C52.8786 5.57854 51.1831 4.49293 48.8744 4.49293H42.872V11.6443H48.8744C51.1831 11.6443 52.8786 10.5587 52.8786 8.06861Z" fill="black"/>
<path d="M70.6973 0.31752H75.4811V18.5147C75.4811 22.3333 77.5702 24.5805 81.6577 24.5805C85.7451 24.5805 87.8342 22.3333 87.8342 18.5147V0.31752H92.6181V18.3173C92.6181 25.1043 87.8797 28.7635 81.6577 28.7635C75.4357 28.7635 70.6973 25.0663 70.6973 18.3173V0.31752Z" fill="black"/>
<path d="M105.486 0.31752H110.27V28.437H105.486V0.31752Z" fill="black"/>
<path d="M135.878 7.11195C134.659 4.98628 133.137 4.02214 131.359 4.02214C129.398 4.02214 128.187 5.4266 128.187 7.07399C128.187 12.6159 141.237 11.5303 141.237 20.2076C141.237 25.3471 137.195 28.7634 131.714 28.7634C126.234 28.7634 122.752 25.4306 121.67 20.9288L125.583 18.6361C126.454 21.7714 128.233 24.5804 131.714 24.5804C134.455 24.5804 136.37 22.8495 136.37 20.3594C136.37 14.8554 123.411 16.0625 123.411 7.38525C123.411 3.12632 126.931 -0.0090332 131.366 -0.0090332C135.545 -0.0090332 138.148 2.07867 139.761 4.72816L135.893 7.09676L135.878 7.11195Z" fill="black"/>
<path d="M171.143 0.31752V4.50053H157.881V11.4089H168.577V15.5844H157.881V24.2616H171.582V28.437H153.098V0.31752H171.143Z" fill="black"/>
<path d="M222.061 9.55651C220.539 5.98084 218.405 4.17402 214.28 4.17402C209.148 4.17402 205.06 7.50676 205.06 14.3772C205.06 21.2477 209.148 24.5804 214.28 24.5804C218.413 24.5804 220.539 22.7736 222.061 19.1979L226.58 20.2456C225.013 25.5445 220.751 28.7634 214.272 28.7634C206.922 28.7634 200.186 23.9048 200.186 14.3848C200.186 4.86486 206.93 -0.0013909 214.28 -0.0013909C220.759 -0.0013909 225.021 3.20988 226.587 8.51645L222.068 9.5641L222.061 9.55651Z" fill="black"/>
<path d="M264.328 14.3772C264.328 23.9807 257.803 28.7558 250.37 28.7558C242.937 28.7558 236.412 23.9731 236.412 14.3772C236.412 4.78136 242.929 -0.0013909 250.37 -0.0013909C257.811 -0.0013909 264.328 4.78136 264.328 14.3772ZM241.279 14.3772C241.279 21.3236 245.45 24.5804 250.37 24.5804C255.29 24.5804 259.461 21.3236 259.461 14.3772C259.461 7.43085 255.29 4.17402 250.37 4.17402C245.45 4.17402 241.279 7.43085 241.279 14.3772Z" fill="black"/>
<path d="M280.807 0.31752V24.2616H293.94V28.437H276.023V0.31752H280.807Z" fill="black"/>
<path d="M310.108 0.31752V24.2616H323.241V28.437H305.324V0.31752H310.108Z" fill="black"/>
<path d="M352.678 0.31752V4.50053H339.417V11.4089H350.112V15.5844H339.417V24.2616H353.117V28.437H334.633V0.31752H352.678Z" fill="black"/>
<path d="M385.34 9.55651C383.819 5.98084 381.684 4.17402 377.559 4.17402C372.427 4.17402 368.339 7.50676 368.339 14.3772C368.339 21.2477 372.427 24.5804 377.559 24.5804C381.692 24.5804 383.819 22.7736 385.34 19.1979L389.859 20.2456C388.292 25.5445 384.031 28.7634 377.551 28.7634C370.202 28.7634 363.465 23.9048 363.465 14.3848C363.465 4.86486 370.202 -0.0013909 377.551 -0.0013909C384.031 -0.0013909 388.292 3.20988 389.859 8.51645L385.34 9.5641V9.55651Z" fill="black"/>
<path d="M398.465 0.31752H420.295V4.50053H411.772V28.4446H406.988V4.50053H398.465V0.31752Z" fill="black"/>
<path d="M430.945 0.31752H435.729V28.437H430.945V0.31752Z" fill="black"/>
<path d="M456.385 28.437L445.992 0.31752H451.124L458.777 22.2498L466.429 0.31752H471.561L461.169 28.437H456.385Z" fill="black"/>
<path d="M499.561 0.31752V4.50053H486.299V11.4089H496.995V15.5844H486.299V24.2616H500V28.437H481.516V0.31752H499.561Z" fill="black"/>
 </svg>
