<svg width="64" height="64" viewBox="0 0 64 64" fill="none" xmlns="http://www.w3.org/2000/svg">
    <path d="M59.12 41.01L40.31 22.9M23.59 22.9L4.78 41.01M4.78 4.78L31.95 30.94L59.12 4.78M27.17 45.03H3.77C2.1 45.03 0.75 43.68 0.75 42.01V3.77C0.75 2.1 2.1 0.75 3.77 0.75H60.13C61.8 0.75 63.15 2.1 63.15 3.77V42.01C63.15 43.68 61.8 45.03 60.13 45.03H50.57" stroke="currentColor" strokeWidth="1.5" strokeLinecap="round" strokeLinejoin="round"/>
    <path d="M53.76 49.3L49.49 50.52C49.22 51.65 48.78 52.71 48.19 53.67L50.35 57.55L48.55 59.35L44.67 57.19C43.74 57.77 42.71 58.2 41.61 58.47L40.34 62.76H37.71L36.44 58.47C35.37 58.21 34.37 57.79 33.46 57.23L29.53 59.37L27.67 57.51L29.81 53.58C29.26 52.67 28.84 51.66 28.57 50.6L24.28 49.33V46.7L28.57 45.44C28.83 44.37 29.25 43.37 29.81 42.46L27.67 38.53L29.53 36.67L33.46 38.81C34.4 38.24 35.43 37.81 36.53 37.55L37.75 33.28H40.3L41.52 37.55C42.65 37.82 43.71 38.26 44.66 38.86L48.54 36.7L50.34 38.5L48.18 42.38C48.77 43.34 49.22 44.4 49.48 45.52L53.75 46.74V49.29L53.76 49.3ZM54.48 45.79L50.42 44.62C50.19 43.84 49.87 43.09 49.49 42.39L51.55 38.69C51.67 38.47 51.65 38.2 51.46 38.01L49.05 35.6C48.87 35.42 48.59 35.39 48.38 35.51L44.68 37.56C43.97 37.18 43.23 36.86 42.44 36.62L41.28 32.56H41.27C41.2 32.33 40.99 32.15 40.73 32.15H37.33C37.07 32.15 36.86 32.33 36.79 32.56L35.63 36.62C34.89 36.84 34.18 37.14 33.5 37.5L29.74 35.45C29.52 35.34 29.24 35.37 29.06 35.56L26.58 38.04C26.39 38.23 26.36 38.51 26.48 38.72L28.53 42.49C28.19 43.13 27.91 43.79 27.69 44.49L23.59 45.7C23.35 45.78 23.18 46 23.18 46.26V49.77C23.18 50.04 23.36 50.25 23.59 50.32L27.69 51.54C27.91 52.24 28.19 52.91 28.53 53.54L26.48 57.3C26.36 57.52 26.39 57.8 26.58 57.99L29.06 60.47C29.25 60.66 29.53 60.69 29.74 60.57L33.5 58.53C34.14 58.87 34.81 59.16 35.51 59.38L36.72 63.47H36.73C36.8 63.7 37.02 63.88 37.28 63.88H40.79C41.06 63.88 41.27 63.7 41.34 63.47L42.55 59.38C43.29 59.15 44 58.84 44.67 58.47L48.37 60.52C48.59 60.63 48.86 60.61 49.04 60.43L51.45 58.02C51.63 57.84 51.66 57.56 51.54 57.35L49.48 53.64C49.86 52.93 50.18 52.19 50.41 51.41L54.47 50.25C54.71 50.17 54.88 49.96 54.88 49.7V46.3C54.88 46.04 54.7 45.83 54.47 45.76M39.01 52.53C36.51 52.53 34.47 50.5 34.47 47.99C34.47 45.48 36.5 43.46 39.01 43.46C41.52 43.46 43.55 45.49 43.55 47.99C43.55 50.49 41.52 52.53 39.01 52.53ZM39.01 42.33C35.88 42.33 33.34 44.87 33.34 48C33.34 51.13 35.88 53.67 39.01 53.67C42.14 53.67 44.68 51.13 44.68 48C44.68 44.87 42.14 42.33 39.01 42.33Z" fill="currentColor"/>
    <path d="M53.76 49.3L49.49 50.52C49.22 51.65 48.78 52.71 48.19 53.67L50.35 57.55L48.55 59.35L44.67 57.19C43.74 57.77 42.71 58.2 41.61 58.47L40.34 62.76H37.71L36.44 58.47C35.37 58.21 34.37 57.79 33.46 57.23L29.53 59.37L27.67 57.51L29.81 53.58C29.26 52.67 28.84 51.66 28.57 50.6L24.28 49.33V46.7L28.57 45.44C28.83 44.37 29.25 43.37 29.81 42.46L27.67 38.53L29.53 36.67L33.46 38.81C34.4 38.24 35.43 37.81 36.53 37.55L37.75 33.28H40.3L41.52 37.55C42.65 37.82 43.71 38.26 44.66 38.86L48.54 36.7L50.34 38.5L48.18 42.38C48.77 43.34 49.22 44.4 49.48 45.52L53.75 46.74V49.29L53.76 49.3ZM54.48 45.79L50.42 44.62C50.19 43.84 49.87 43.09 49.49 42.39L51.55 38.69C51.67 38.47 51.65 38.2 51.46 38.01L49.05 35.6C48.87 35.42 48.59 35.39 48.38 35.51L44.68 37.56C43.97 37.18 43.23 36.86 42.44 36.62L41.28 32.56H41.27C41.2 32.33 40.99 32.15 40.73 32.15H37.33C37.07 32.15 36.86 32.33 36.79 32.56L35.63 36.62C34.89 36.84 34.18 37.14 33.5 37.5L29.74 35.45C29.52 35.34 29.24 35.37 29.06 35.56L26.58 38.04C26.39 38.23 26.36 38.51 26.48 38.72L28.53 42.49C28.19 43.13 27.91 43.79 27.69 44.49L23.59 45.7C23.35 45.78 23.18 46 23.18 46.26V49.77C23.18 50.04 23.36 50.25 23.59 50.32L27.69 51.54C27.91 52.24 28.19 52.91 28.53 53.54L26.48 57.3C26.36 57.52 26.39 57.8 26.58 57.99L29.06 60.47C29.25 60.66 29.53 60.69 29.74 60.57L33.5 58.53C34.14 58.87 34.81 59.16 35.51 59.38L36.72 63.47H36.73C36.8 63.7 37.02 63.88 37.28 63.88H40.79C41.06 63.88 41.27 63.7 41.34 63.47L42.55 59.38C43.29 59.15 44 58.84 44.67 58.47L48.37 60.52C48.59 60.63 48.86 60.61 49.04 60.43L51.45 58.02C51.63 57.84 51.66 57.56 51.54 57.35L49.48 53.64C49.86 52.93 50.18 52.19 50.41 51.41L54.47 50.25C54.71 50.17 54.88 49.96 54.88 49.7V46.3C54.88 46.04 54.7 45.83 54.47 45.76L54.48 45.79ZM39.02 52.56C36.52 52.56 34.48 50.53 34.48 48.02C34.48 45.51 36.51 43.49 39.02 43.49C41.53 43.49 43.56 45.52 43.56 48.02C43.56 50.52 41.53 52.56 39.02 52.56ZM39.02 42.36C35.89 42.36 33.35 44.9 33.35 48.03C33.35 51.16 35.89 53.7 39.02 53.7C42.15 53.7 44.69 51.16 44.69 48.03C44.69 44.9 42.15 42.36 39.02 42.36Z" stroke="currentColor" strokeWidth="0.2" strokeMiterlimit="10"/>
</svg>
