<svg width="80" height="60" viewBox="0 0 80 60" fill="none" xmlns="http://www.w3.org/2000/svg">
<mask id="mask0_20_2" style="mask-type:luminance" maskUnits="userSpaceOnUse" x="2" y="0" width="77" height="60">
<path d="M78.67 0H2V59.6H78.67V0Z" fill="white"/>
</mask>
<g mask="url(#mask0_20_2)">
<path d="M11.01 50.63C11.01 49.23 10.17 48.01 8.69001 48.01C7.21001 48.01 6.39001 49.23 6.39001 50.63C6.39001 52.03 7.21001 53.27 8.69001 53.27C10.17 53.27 11.01 52.05 11.01 50.63ZM3.92001 50.63C3.92001 48.07 5.72001 45.9 8.69001 45.9C11.66 45.9 13.48 48.07 13.48 50.63C13.48 53.19 11.68 55.38 8.69001 55.38C5.70001 55.38 3.92001 53.21 3.92001 50.63Z" fill="currentColor"/>
<path d="M20.98 54.02C20.36 54.71 19.28 55.39 17.8 55.39C15.82 55.39 14.88 54.3 14.88 52.54V46.12H17.26V51.6C17.26 52.86 17.92 53.27 18.93 53.27C19.85 53.27 20.58 52.77 20.99 52.24V46.12H23.37V55.16H20.99V54.02H20.98Z" fill="currentColor"/>
<path d="M25.32 46.12H27.7V47.35C28.34 46.55 29.46 45.91 30.58 45.91V48.23C30.41 48.19 30.19 48.17 29.92 48.17C29.13 48.17 28.09 48.6 27.69 49.18V55.15H25.31V46.11L25.32 46.12Z" fill="currentColor"/>
<path d="M42.91 48.83C42.91 47.56 42.37 46.77 41.1 46.77C40.13 46.77 39.02 47.48 38.52 48.3V55.15H37.53V48.82C37.53 47.55 37.01 46.76 35.71 46.76C34.76 46.76 33.67 47.49 33.13 48.31V55.14H32.16V46.1H33.13V47.47C33.51 46.89 34.74 45.88 36.05 45.88C37.45 45.88 38.2 46.7 38.43 47.58C38.94 46.74 40.15 45.88 41.42 45.88C43.09 45.88 43.89 46.81 43.89 48.63V55.14H42.92V48.81L42.91 48.83Z" fill="currentColor"/>
<path d="M46.62 50.18H53.19C53.17 48.65 52.16 46.74 49.9 46.74C47.77 46.74 46.7 48.61 46.63 50.18M49.92 45.89C52.67 45.89 54.19 48.08 54.19 50.68V50.94H46.63C46.72 52.91 48.03 54.53 50.17 54.53C51.31 54.53 52.36 54.1 53.13 53.28L53.64 53.92C52.74 54.86 51.6 55.38 50.1 55.38C47.46 55.38 45.57 53.41 45.57 50.63C45.57 48.01 47.42 45.89 49.93 45.89" fill="currentColor"/>
<path d="M62.98 48.42C62.46 47.54 61.28 46.77 60 46.77C58 46.77 56.84 48.46 56.84 50.64C56.84 52.82 58 54.5 60 54.5C61.27 54.5 62.45 53.75 62.98 52.89V48.42ZM62.98 53.72C62.34 54.66 61.18 55.39 59.84 55.39C57.44 55.39 55.8 53.55 55.8 50.65C55.8 47.75 57.45 45.9 59.84 45.9C61.13 45.9 62.25 46.56 62.98 47.58V42.68H63.97V55.16H62.98V53.72Z" fill="currentColor"/>
<path d="M66.58 46.12H67.55V55.16H66.58V46.12ZM66.32 43.84C66.32 43.43 66.68 43.09 67.07 43.09C67.46 43.09 67.82 43.43 67.82 43.84C67.82 44.25 67.48 44.59 67.07 44.59C66.66 44.59 66.32 44.25 66.32 43.84Z" fill="currentColor"/>
<path d="M75.78 51.4C75.14 50.58 74.13 50.15 73.05 50.15C71.55 50.15 70.58 51.1 70.58 52.4C70.58 53.7 71.55 54.63 73.05 54.63C74.14 54.63 75.15 54.22 75.78 53.39V51.41V51.4ZM75.78 54.1C74.97 54.98 73.96 55.39 72.71 55.39C71.16 55.39 69.55 54.32 69.55 52.38C69.55 50.44 71.14 49.39 72.71 49.39C73.96 49.39 74.99 49.8 75.78 50.68V48.85C75.78 47.5 74.69 46.77 73.35 46.77C72.23 46.77 71.35 47.16 70.52 48.1L69.98 47.43C70.92 46.42 71.96 45.91 73.46 45.91C75.29 45.91 76.75 46.79 76.75 48.81V55.17H75.78V54.1Z" fill="currentColor"/>
<path d="M74.31 8.92C75.01 8.8 75.24 8.78 75.87 8.72C78.55 8.37 78.66 2.87 78.66 0.56V0.15C77.9 0.06 77.12 0 76.33 0C66.17 0 57.93 8.24 57.93 18.4C57.93 23.75 53.59 28.1 48.24 28.1C42.89 28.1 38.55 23.76 38.55 18.41C38.55 8.24 30.34 0 20.18 0C10.02 0 2 8.24 2 18.4C2 28.56 10.02 36.8 20.18 36.8C25.75 36.8 30.83 34.19 34.2 30.29C33.99 30.11 33.84 29.97 33.63 29.76C32.4 28.61 30.98 27.69 29.51 26.92C28.01 26.14 26.23 26.14 24.74 26.94C23.38 27.67 21.83 28.08 20.18 28.08C14.83 28.08 10.71 23.74 10.71 18.39C10.71 13.04 14.83 8.7 20.18 8.7C25.53 8.7 29.84 13.04 29.84 18.39C29.84 28.55 38.08 36.79 48.24 36.79C58.4 36.79 66.64 28.55 66.64 18.39C66.64 13.73 69.93 9.84 74.31 8.91" fill="currentColor"/>
</g>
<path d="M33.03 57.98L33.42 58.98H32.64L33.03 57.98ZM32.89 57.78L32.17 59.57H32.42L32.58 59.17H33.49L33.65 59.57H33.9L33.18 57.78H32.9H32.89Z" fill="currentColor"/>
<path d="M35.52 57.78V59.19L34.49 57.78H34.26V59.57H34.49V58.12L35.53 59.57H35.75V57.78H35.52Z" fill="currentColor"/>
<path d="M37.35 57.78H37.13V59.57H37.35V57.78Z" fill="currentColor"/>
<path d="M39.34 57.78L38.78 59.14L38.23 57.78H37.91V59.57H38.13V58.08L38.74 59.57H38.83L39.44 58.08V59.57H39.66V57.78H39.34Z" fill="currentColor"/>
<path d="M41.66 57.78L41.1 59.14L40.54 57.78H40.22V59.57H40.45V58.08L41.05 59.57H41.14L41.75 58.08V59.57H41.98V57.78H41.66Z" fill="currentColor"/>
<path d="M42.54 57.78V59.57H43.71V59.37H42.76V58.75H43.69V58.55H42.76V57.98H43.71V57.78H42.54Z" fill="currentColor"/>
<mask id="mask1_20_2" style="mask-type:luminance" maskUnits="userSpaceOnUse" x="2" y="0" width="77" height="60">
<path d="M78.67 0H2V59.6H78.67V0Z" fill="white"/>
</mask>
<g mask="url(#mask1_20_2)">
<path d="M44.41 59.37H44.8C45.24 59.37 45.49 59.06 45.49 58.67C45.49 58.28 45.25 57.97 44.8 57.97H44.41V59.36V59.37ZM44.19 59.57V57.78H44.8C45.36 57.78 45.72 58.17 45.72 58.68C45.72 59.19 45.36 59.57 44.8 59.57H44.19Z" fill="currentColor"/>
</g>
<path d="M46.42 57.78H46.2V59.57H46.42V57.78Z" fill="currentColor"/>
<path d="M47.65 57.98L48.04 58.98H47.26L47.65 57.98ZM47.51 57.78L46.79 59.57H47.04L47.2 59.17H48.11L48.27 59.57H48.52L47.8 57.78H47.52H47.51Z" fill="currentColor"/>
<path d="M48.52 57.78V57.98H49.09V59.57H49.31V57.98H49.88V57.78H48.52Z" fill="currentColor"/>
<path d="M50.28 57.78V59.57H51.45V59.37H50.5V58.75H51.43V58.55H50.5V57.98H51.45V57.78H50.28Z" fill="currentColor"/>
<mask id="mask2_20_2" style="mask-type:luminance" maskUnits="userSpaceOnUse" x="2" y="0" width="77" height="60">
<path d="M78.67 0H2V59.6H78.67V0Z" fill="white"/>
</mask>
<g mask="url(#mask2_20_2)">
<path d="M53.62 57.75C53.94 57.75 54.16 57.89 54.32 58.09L54.14 58.2C54.03 58.06 53.84 57.95 53.62 57.95C53.23 57.95 52.93 58.25 52.93 58.68C52.93 59.11 53.23 59.41 53.62 59.41C53.84 59.41 54.01 59.3 54.1 59.22V58.85H53.49V58.65H54.33V59.3C54.16 59.49 53.92 59.61 53.63 59.61C53.12 59.61 52.71 59.24 52.71 58.68C52.71 58.12 53.12 57.75 53.63 57.75" fill="currentColor"/>
<path d="M55.52 57.98H55.05V58.67H55.52C55.73 58.67 55.88 58.53 55.88 58.33C55.88 58.13 55.73 57.99 55.52 57.99M55.86 59.58L55.4 58.87H55.04V59.58H54.82V57.79H55.54C55.87 57.79 56.1 58 56.1 58.33C56.1 58.66 55.88 58.83 55.64 58.85L56.12 59.58H55.86Z" fill="currentColor"/>
<path d="M57.38 57.95C56.98 57.95 56.72 58.26 56.72 58.68C56.72 59.1 56.98 59.41 57.38 59.41C57.78 59.41 58.04 59.1 58.04 58.68C58.04 58.26 57.78 57.95 57.38 57.95ZM57.38 57.75C57.91 57.75 58.27 58.15 58.27 58.68C58.27 59.21 57.91 59.61 57.38 59.61C56.85 59.61 56.49 59.21 56.49 58.68C56.49 58.15 56.85 57.75 57.38 57.75Z" fill="currentColor"/>
<path d="M58.73 57.78H58.95V58.87C58.95 59.2 59.13 59.4 59.46 59.4C59.79 59.4 59.97 59.19 59.97 58.87V57.78H60.19V58.87C60.19 59.32 59.95 59.6 59.46 59.6C58.97 59.6 58.73 59.31 58.73 58.87V57.77V57.78Z" fill="currentColor"/>
<path d="M61.44 57.98H60.97V58.66H61.44C61.65 58.66 61.8 58.52 61.8 58.32C61.8 58.12 61.65 57.98 61.44 57.98ZM60.75 59.57V57.78H61.47C61.83 57.78 62.03 58.03 62.03 58.32C62.03 58.61 61.82 58.86 61.47 58.86H60.97V59.57H60.75Z" fill="currentColor"/>
<path d="M63.22 58.67C63.22 58.12 63.63 57.74 64.13 57.74C64.46 57.74 64.68 57.89 64.82 58.09L64.63 58.2C64.53 58.05 64.34 57.94 64.13 57.94C63.75 57.94 63.45 58.24 63.45 58.67C63.45 59.1 63.75 59.4 64.13 59.4C64.34 59.4 64.53 59.29 64.63 59.14L64.82 59.25C64.67 59.45 64.45 59.6 64.13 59.6C63.62 59.6 63.22 59.22 63.22 58.67Z" fill="currentColor"/>
<path d="M66 57.95C65.6 57.95 65.34 58.26 65.34 58.68C65.34 59.1 65.6 59.41 66 59.41C66.4 59.41 66.66 59.1 66.66 58.68C66.66 58.26 66.4 57.95 66 57.95ZM66 57.75C66.53 57.75 66.89 58.15 66.89 58.68C66.89 59.21 66.53 59.61 66 59.61C65.47 59.61 65.11 59.21 65.11 58.68C65.11 58.15 65.47 57.75 66 57.75Z" fill="currentColor"/>
</g>
<path d="M68.8 57.78L68.24 59.14L67.69 57.78H67.37V59.57H67.59V58.08L68.2 59.57H68.29L68.9 58.08V59.57H69.12V57.78H68.8Z" fill="currentColor"/>
<mask id="mask3_20_2" style="mask-type:luminance" maskUnits="userSpaceOnUse" x="2" y="0" width="77" height="60">
<path d="M78.67 0H2V59.6H78.67V0Z" fill="white"/>
</mask>
<g mask="url(#mask3_20_2)">
<path d="M70.38 57.98H69.91V58.66H70.38C70.59 58.66 70.74 58.52 70.74 58.32C70.74 58.12 70.59 57.98 70.38 57.98ZM69.69 59.57V57.78H70.41C70.77 57.78 70.97 58.03 70.97 58.32C70.97 58.61 70.76 58.86 70.41 58.86H69.91V59.57H69.69Z" fill="currentColor"/>
</g>
<path d="M71.91 57.98L72.3 58.98H71.52L71.91 57.98ZM71.77 57.78L71.05 59.57H71.3L71.46 59.17H72.37L72.53 59.57H72.78L72.06 57.78H71.78H71.77Z" fill="currentColor"/>
<path d="M74.4 57.78V59.19L73.37 57.78H73.14V59.57H73.37V58.12L74.41 59.57H74.63V57.78H74.4Z" fill="currentColor"/>
<path d="M76.37 57.78L75.81 58.61L75.26 57.78H75L75.7 58.81V59.57H75.93V58.81L76.63 57.78H76.37Z" fill="currentColor"/>
</svg>
