<svg width="70" height="70" viewBox="0 0 70 70" fill="none" xmlns="http://www.w3.org/2000/svg">
    <path d="M35 0C28.0777 0 21.3108 2.05271 15.5551 5.89856C9.79934 9.74441 5.3133 15.2107 2.66423 21.6061C0.0151644 28.0015 -0.677952 35.0388 0.672531 41.8282C2.02301 48.6175 5.35644 54.8539 10.2513 59.7487C15.1461 64.6436 21.3825 67.977 28.1718 69.3275C34.9612 70.678 41.9985 69.9848 48.3939 67.3358C54.7893 64.6867 60.2556 60.2007 64.1014 54.4449C67.9473 48.6892 70 41.9223 70 35C69.9898 25.7205 66.2991 16.8241 59.7375 10.2625C53.1759 3.70095 44.2795 0.0101906 35 0ZM35 67.2C28.6315 67.2 22.4059 65.3115 17.1107 61.7733C11.8154 58.2351 7.68823 53.2062 5.25109 47.3224C2.81395 41.4386 2.17628 34.9643 3.41873 28.7181C4.66117 22.4719 7.72792 16.7344 12.2312 12.2312C16.7344 7.72791 22.4719 4.66116 28.7181 3.41871C34.9643 2.17627 41.4386 2.81394 47.3224 5.25108C53.2062 7.68822 58.2351 11.8154 61.7733 17.1106C65.3115 22.4059 67.2 28.6314 67.2 35C67.1907 43.5371 63.7953 51.7219 57.7586 57.7586C51.7219 63.7953 43.5371 67.1907 35 67.2ZM46.977 33.8345L30.177 22.6345C29.9661 22.4938 29.721 22.413 29.4678 22.4007C29.2145 22.3885 28.9627 22.4452 28.7392 22.5648C28.5157 22.6845 28.3289 22.8626 28.1987 23.0801C28.0685 23.2977 27.9998 23.5465 28 23.8V46.2C27.9997 46.4535 28.0683 46.7023 28.1983 46.9199C28.3284 47.1375 28.5151 47.3157 28.7385 47.4355C28.9621 47.5552 29.2141 47.612 29.4675 47.5996C29.7208 47.5873 29.9661 47.5064 30.177 47.3655L46.977 36.1655C47.169 36.0377 47.3265 35.8644 47.4354 35.6611C47.5444 35.4578 47.6014 35.2307 47.6014 35C47.6014 34.7693 47.5444 34.5422 47.4354 34.3389C47.3265 34.1356 47.169 33.9623 46.977 33.8345ZM30.8 43.5855V26.4145L43.6765 35L30.8 43.5855Z" fill="currentColor"/>
</svg>
