<svg width="64" height="64" viewBox="0 0 64 64" fill="none" xmlns="http://www.w3.org/2000/svg">
    <path d="M14.89 17.87H4.97C2.77 17.87 1 19.64 1 21.84V51.61C1 53.81 2.77 55.58 4.97 55.58H29.78L41.69 63.52V55.58H44.67C46.87 55.58 48.64 53.81 48.64 51.61V38.71M30.77 19.85C30.77 21.49 29.44 22.83 27.79 22.83C26.14 22.83 24.81 21.5 24.81 19.85C24.81 18.2 26.14 16.87 27.79 16.87C29.44 16.87 30.77 18.2 30.77 19.85ZM52.6 19.85C52.6 21.49 51.27 22.83 49.62 22.83C47.97 22.83 46.64 21.5 46.64 19.85C46.64 18.2 47.97 16.87 49.62 16.87C51.27 16.87 52.6 18.2 52.6 19.85ZM41.69 19.85C41.69 21.49 40.36 22.83 38.71 22.83C37.06 22.83 35.73 21.5 35.73 19.85C35.73 18.2 37.06 16.87 38.71 16.87C40.36 16.87 41.69 18.2 41.69 19.85ZM18.86 1H58.55C60.75 1 62.52 2.77 62.52 4.97V34.74C62.52 36.94 60.75 38.71 58.55 38.71H33.74L21.83 46.65V38.71H18.85C16.65 38.71 14.88 36.94 14.88 34.74V4.97C14.88 2.77 16.65 1 18.85 1H18.86Z" stroke="currentColor" strokeWidth="1.5" stroke-linecap="round" stroke-linejoin="round"/>
</svg>
