<svg width="48" height="48" viewBox="0 0 48 48" fill="none" xmlns="http://www.w3.org/2000/svg">
<path d="M18.3942 48C18.4002 47.8849 18.4063 47.7638 18.4063 47.6488C18.4063 40.5574 18.4063 33.472 18.4063 26.3806V26.1081H18.1035C15.8447 26.1081 13.5798 26.1081 11.321 26.1081C11.0061 26.1081 11.0061 26.1081 11.0061 25.8053C11.0061 23.1529 11.0121 20.5004 11 17.8419C11 17.5997 11.0727 17.5391 11.3088 17.5391C13.5677 17.5512 15.8326 17.5452 18.0914 17.5452H18.4063C18.4063 17.4543 18.4063 17.3696 18.4063 17.2908C18.4063 15.0865 18.3942 12.8761 18.4245 10.6718C18.4487 8.89743 18.7939 7.17757 19.569 5.57277C20.6227 3.38661 22.2699 1.8242 24.5166 0.891605C26.0185 0.267854 27.5809 -0.0228269 29.1978 0.00139647C31.0509 0.0316757 32.8979 0.110402 34.751 0.177016C35.0962 0.189128 35.4353 0.249686 35.7805 0.267853C35.9743 0.279965 36.0349 0.346579 36.0349 0.540366C36.0288 1.63647 36.0349 2.73864 36.0349 3.8408C36.0349 5.13675 36.0288 6.4327 36.0409 7.72865C36.0409 7.95272 35.9804 8.02539 35.7502 8.01933C34.3453 8.00722 32.9403 7.99511 31.5354 8.02539C30.8995 8.0375 30.2515 8.11017 29.6278 8.2434C28.4227 8.5038 27.7141 9.30317 27.4719 10.4962C27.375 10.9746 27.3205 11.4772 27.3144 11.9677C27.2963 13.7663 27.3084 15.5649 27.3084 17.3635C27.3084 17.418 27.3144 17.4725 27.3205 17.5512H27.6293C30.2212 17.5512 32.8131 17.5512 35.405 17.5512C35.7442 17.5512 35.7502 17.5512 35.7078 17.8722C35.5262 19.2832 35.3324 20.7003 35.1507 22.1113C34.9993 23.2922 34.8479 24.4731 34.7086 25.6539C34.6541 26.1021 34.6662 26.1081 34.212 26.1081C32.0138 26.1081 29.8155 26.1081 27.6172 26.1081H27.3084V26.4473C27.3084 33.4599 27.3084 40.4726 27.3084 47.4792C27.3084 47.6488 27.3084 47.8244 27.3023 47.9939H18.3942V48Z" fill="currentColor"/>
</svg>
