<svg width="48" height="48" viewBox="0 0 48 48" fill="none" xmlns="http://www.w3.org/2000/svg">
<path d="M23.7226 15.4009C19.0759 15.4009 15.3128 19.17 15.3128 23.8287C15.3128 28.4814 19.0759 32.2505 23.7226 32.2505C28.3633 32.2505 32.1324 28.4814 32.1324 23.8287C32.1264 19.17 28.3633 15.4009 23.7226 15.4009ZM36.6228 23.8107C36.6228 30.916 30.876 36.6748 23.7827 36.6748C16.6954 36.6748 10.9426 30.916 10.9426 23.8107C10.9426 16.7053 16.6894 10.9465 23.7827 10.9465C30.876 10.9465 36.6228 16.7053 36.6228 23.8107Z" fill="currentColor"/>
<path d="M39.8689 10.7482C39.8689 12.4313 38.5103 13.7959 36.8272 13.7959C35.15 13.7959 33.7855 12.4313 33.7855 10.7482C33.7855 9.065 35.15 7.70044 36.8272 7.70044C38.5103 7.70044 39.8689 9.065 39.8689 10.7482Z" fill="currentColor"/>
<path d="M34.062 44.4113C36.713 44.4113 39.2136 43.3653 41.1072 41.4718C43.0008 39.5782 44.0407 37.0655 44.0407 34.4145V13.5915C44.0407 10.9345 43.0008 8.4278 41.1072 6.53425C39.2136 4.63469 36.713 3.58873 34.062 3.58873H14.5614C11.9105 3.58873 9.40977 4.63469 7.51622 6.52824C5.62267 8.4278 4.58272 10.9345 4.58272 13.5855V34.4025C4.58272 37.0595 5.62267 39.5662 7.51622 41.4597C9.40977 43.3593 11.9105 44.3993 14.5614 44.3993H34.062V44.4113ZM34.062 48H14.5614C7.10144 48 1 41.8865 1 34.4085V13.5915C1 6.11346 7.10144 0 14.5614 0H34.062C41.522 0 47.6234 6.11346 47.6234 13.5915V34.4085C47.6234 41.8865 41.522 48 34.062 48Z" fill="currentColor"/>
</svg>
