<svg width="48" height="48" viewBox="0 0 48 48" fill="none" xmlns="http://www.w3.org/2000/svg">
    <path d="M24 0C10.7482 0 0 10.742 0 24C0 33.8294 5.9075 42.2713 14.3618 45.9836C14.2939 44.3063 14.3494 42.296 14.7811 40.4707C15.2436 38.5221 17.8705 27.3916 17.8705 27.3916C17.8705 27.3916 17.1059 25.8561 17.1059 23.593C17.1059 20.0411 19.1655 17.3834 21.7307 17.3834C23.9137 17.3834 24.9681 19.0236 24.9681 20.9846C24.9681 23.1799 23.5683 26.4604 22.8469 29.5005C22.2487 32.0473 24.1233 34.1254 26.6331 34.1254C31.184 34.1254 34.2425 28.2857 34.2425 21.3669C34.2425 16.1069 30.703 12.1665 24.259 12.1665C16.9764 12.1665 12.444 17.5992 12.444 23.6608C12.444 25.7451 13.0606 27.2189 14.0288 28.3659C14.4728 28.89 14.5344 29.0997 14.3741 29.704C14.2569 30.148 13.9979 31.2086 13.8869 31.628C13.7266 32.2384 13.2333 32.4543 12.6845 32.2323C9.32991 30.8633 7.76978 27.1881 7.76978 23.0627C7.76978 16.2426 13.517 8.07194 24.9188 8.07194C34.0822 8.07194 40.113 14.7009 40.113 21.8171C40.113 31.2271 34.8777 38.2631 27.1634 38.2631C24.5735 38.2631 22.1377 36.8633 21.2991 35.2724C21.2991 35.2724 19.9054 40.8037 19.6095 41.8705C19.0976 43.7205 18.1048 45.5704 17.1922 47.0134C19.3505 47.6485 21.6321 48 23.9938 48C37.2456 48 47.9938 37.2518 47.9938 24C48 10.742 37.2518 0 24 0Z" fill="currentColor"/>
</svg>
