<svg width="48" height="48" viewBox="0 0 48 48" fill="none" xmlns="http://www.w3.org/2000/svg">
    <path d="M38.6189 48C38.6189 26.6035 21.3038 9.20175 0.0247359 9.20175V0C26.3746 0 47.8145 21.5326 47.8145 48H38.6189ZM22.3612 47.9876C22.3612 41.9706 20.0361 36.3185 15.8124 32.0763C11.5949 27.8402 5.9799 25.5027 0.0123679 25.5027V16.3071C17.4079 16.3071 31.563 30.5241 31.563 47.9876H22.3612ZM6.37568 47.9443C2.857 47.9443 0 45.0935 0 41.5687C0 38.05 2.857 35.193 6.37568 35.193C9.89436 35.193 12.7452 38.0438 12.7452 41.5687C12.7452 45.0935 9.89436 47.9443 6.37568 47.9443Z" fill="currentColor"/>
</svg>
