<svg width="48" height="48" viewBox="0 0 48 48" fill="none" xmlns="http://www.w3.org/2000/svg">
<path d="M48 8.62397C46.2335 9.40496 44.3368 9.93802 42.3409 10.1736C44.374 8.95248 45.936 7.02479 46.6736 4.72521C44.7707 5.85331 42.6632 6.67149 40.4194 7.11157C38.6219 5.19628 36.062 4 33.2293 4C27.7934 4 23.3802 8.40703 23.3802 13.8492C23.3802 14.624 23.4669 15.374 23.6343 16.093C15.4525 15.6839 8.19422 11.7603 3.33471 5.80372C2.49793 7.26033 2.00826 8.95248 2.00826 10.7562C2.00826 14.1715 3.75 17.1839 6.3905 18.9504C4.77893 18.9008 3.26033 18.4545 1.92769 17.7169C1.92769 17.7603 1.92769 17.7975 1.92769 17.8409C1.92769 22.6136 5.32438 26.593 9.83058 27.4979C9.0062 27.7211 8.13223 27.845 7.23347 27.845C6.60124 27.845 5.98141 27.7831 5.38017 27.6715C6.63223 31.5826 10.2707 34.4277 14.5785 34.5083C11.2066 37.1488 6.96074 38.7231 2.34917 38.7231C1.55579 38.7231 0.768595 38.6798 0 38.5868C4.35744 41.3822 9.53926 43.0124 15.0992 43.0124C33.2107 43.0124 43.1157 28.0062 43.1157 14.9959C43.1157 14.5682 43.1033 14.1467 43.0847 13.719C45.0124 12.3306 46.6798 10.595 48 8.62397Z" fill="currentColor"/>
</svg>
